<svg width="128" height="128" viewBox="0 0 128 128" fill="none" xmlns="http://www.w3.org/2000/svg">
<g clip-path="url(#clip0_32_2548)">
<path d="M120 85.3335H106.667V77.3335C106.667 75.8615 105.472 74.6667 104 74.6667H72C70.528 74.6667 69.3333 75.8615 69.3333 77.3335V85.3335H42.6668V45.3335C42.6668 43.8615 41.472 42.6668 40 42.6668H38.368L42.528 30.176C42.6187 29.904 42.6668 29.6213 42.6668 29.3333V18.6667C42.6668 17.1947 41.472 16 40 16H26.6667V2.66675C26.6667 1.19475 25.472 0 24 0C22.528 0 21.3333 1.19475 21.3333 2.66675V16H8C6.528 16 5.33325 17.1947 5.33325 18.6667V29.3335C5.33325 29.6215 5.38125 29.9043 5.472 30.1763L9.632 42.667H8C6.528 42.667 5.33325 43.8618 5.33325 45.3338V85.3337H2.66675C1.19475 85.3335 0 86.528 0 88V125.333C0 126.806 1.19475 128 2.66675 128H90.6667V98.6667C90.6667 97.1947 91.8615 96 93.3335 96H109.334C110.806 96 112 97.1947 112 98.6667V128H120C121.472 128 122.667 126.805 122.667 125.333V88C122.667 86.528 121.472 85.3335 120 85.3335ZM26.6667 109.334C26.6667 110.806 25.472 112 24 112H13.3333C11.8613 112 10.6665 110.806 10.6665 109.334V98.6667C10.6665 97.1947 11.8613 96 13.3333 96H24C25.472 96 26.6667 97.1947 26.6667 98.6667V109.334ZM32 66.6667C32 68.1387 30.8053 69.3335 29.3333 69.3335H18.6667C17.1947 69.3335 16 68.1387 16 66.6667V56C16 54.528 17.1947 53.3332 18.6667 53.3332H29.3335C30.8055 53.3332 32.0003 54.528 32.0003 56V66.6667H32ZM29.3333 32H18.6667C17.1947 32 16 30.8055 16 29.3335C16 27.8615 17.1947 26.6667 18.6667 26.6667H29.3335C30.8055 26.6667 32.0003 27.8615 32.0003 29.3335C32.0003 30.8055 30.8053 32 29.3333 32ZM53.3332 109.334C53.3332 110.806 52.1385 112 50.6665 112H40C38.528 112 37.3332 110.806 37.3332 109.334V98.6667C37.3332 97.1947 38.528 96 40 96H50.6668C52.1388 96 53.3335 97.1947 53.3335 98.6667V109.334H53.3332ZM80 109.334C80 110.806 78.8053 112 77.3333 112H66.6665C65.1945 112 63.9997 110.806 63.9997 109.334V98.6667C63.9997 97.1947 65.1945 96 66.6665 96H77.3333C78.8053 96 80 97.1947 80 98.6667V109.334Z" fill="#97A2AC"/>
<path d="M125.989 23.7601C121.616 20.7681 116.971 20.4001 112.416 22.6134L97.3014 29.7174L96.8534 29.9841L87.4987 25.0934C83.5894 22.4906 79.1199 21.1094 74.4959 21.1094H74.4907L66.5974 21.3334C65.4614 21.3654 64.4747 22.1121 64.1334 23.1946C63.7922 24.2774 64.1654 25.4559 65.0774 26.1334L81.6802 38.5814L68.6134 45.3706C66.9974 45.2159 62.3254 44.0746 60.0002 43.5039C56.9922 42.7731 56.5282 42.6666 56.0002 42.6666H50.6669C49.5417 42.6666 48.5337 43.3759 48.1549 44.4374C47.7762 45.4986 48.1069 46.6826 48.9817 47.3974C51.3657 49.3441 63.6004 59.0561 70.3417 59.0561C71.4884 59.0561 72.5017 58.8001 73.2109 58.3789L126.048 31.5149C127.28 30.6509 128.011 29.2001 128 27.6321C127.995 26.0696 127.243 24.6241 125.989 23.7601Z" fill="#97A2AC"/>
</g>
<defs>
<clipPath id="clip0_32_2548">
<rect width="128" height="128" fill="white"/>
</clipPath>
</defs>
</svg>
