<svg width="128" height="128" viewBox="0 0 128 128" fill="none" xmlns="http://www.w3.org/2000/svg">
<g clip-path="url(#clip0_32_2565)">
<path d="M111.359 7.90625V0H53.4784V7.9465H37.4297V55.7305C46.8219 60.837 53.2112 70.7943 53.2112 82.216C53.2112 89.0025 48.7594 100.08 39.6009 116.08C38.8729 117.352 38.1467 118.598 37.4297 119.812V127.023H78.7372V102.819H86.6297V127.023H127.144V7.95975L111.359 7.90625ZM70.8442 94.3323H62.9512V86.4398H70.8442V94.3323ZM70.8442 78.5465H62.9512V70.654H70.8442V78.5465ZM70.8442 63.1235H62.9512V55.231H70.8442V63.1235ZM86.6299 94.3323H78.7369V86.4398H86.6299V94.3323ZM86.6299 78.5465H78.7369V70.654H86.6299V78.5465ZM86.6299 63.1235H78.7369V55.231H86.6299V63.1235ZM94.5227 44.707H86.6302V35.4985H78.7367V44.707H70.8442V18.3975H78.7367V27.606H86.6302V18.3975H94.5227V44.707ZM102.416 94.3323H94.5229V86.4398H102.416V94.3323ZM102.416 78.5465H94.5229V70.654H102.416V78.5465ZM102.416 63.1235H94.5229V55.231H102.416V63.1235Z" fill="#97A2AC"/>
<path d="M23.0872 59.9844C10.8287 59.9844 0.855469 69.9576 0.855469 82.2159C0.855469 85.1956 2.48497 93.0419 13.3992 112.117C16.9797 118.375 20.591 124.13 23.0872 128C25.5832 124.13 29.1947 118.375 32.7752 112.117C43.6892 93.0419 45.319 85.1954 45.319 82.2159C45.3187 69.9574 35.3457 59.9844 23.0872 59.9844ZM23.0872 96.8706C15.0065 96.8706 8.43222 90.2964 8.43222 82.2156C8.43222 74.1349 15.0062 67.5606 23.0872 67.5606C31.168 67.5606 37.7422 74.1349 37.7422 82.2156C37.7422 90.2964 31.168 96.8706 23.0872 96.8706Z" fill="#97A2AC"/>
<path d="M23.0867 75.4531C19.358 75.4531 16.3242 78.4866 16.3242 82.2156C16.3242 85.9446 19.3577 88.9781 23.0867 88.9781C26.8157 88.9781 29.8492 85.9446 29.8492 82.2156C29.8492 78.4869 26.8152 75.4531 23.0867 75.4531Z" fill="#97A2AC"/>
</g>
<defs>
<clipPath id="clip0_32_2565">
<rect width="128" height="128" fill="white"/>
</clipPath>
</defs>
</svg>
