<svg width="128" height="128" viewBox="0 0 128 128" fill="none" xmlns="http://www.w3.org/2000/svg">
<path d="M71.0156 21.52V2H57.0156V21.5093L64.0023 18.9707L71.0156 21.52Z" fill="#97A2AC"/>
<path d="M103.038 62.4639V37.4132L63.9977 23.2266L24.9844 37.4132V62.4506L63.9977 41.2799L103.038 62.4639ZM86.803 41.4426C86.8923 41.1955 87.0296 40.9685 87.2069 40.7746C87.3842 40.5807 87.598 40.4237 87.8361 40.3127C88.0743 40.2017 88.332 40.1389 88.5945 40.1277C88.8569 40.1166 89.1191 40.1574 89.3657 40.2479L94.8431 42.2399C95.3281 42.4311 95.7193 42.8041 95.9334 43.2794C96.1474 43.7548 96.1674 44.295 95.989 44.7848C95.8107 45.2747 95.4481 45.6756 94.9785 45.9021C94.5089 46.1285 93.9694 46.1627 93.475 45.9972L87.9977 43.9999C87.5013 43.8177 87.0971 43.4466 86.8733 42.9675C86.6495 42.4884 86.6242 41.9402 86.803 41.4426ZM76.291 37.1546C76.3804 36.9075 76.5176 36.6804 76.6948 36.4864C76.8721 36.2924 77.0859 36.1353 77.3239 36.0241C77.562 35.9129 77.8196 35.8497 78.0821 35.8382C78.3447 35.8268 78.6069 35.8672 78.8537 35.9572L84.3284 37.9492C84.5753 38.0391 84.802 38.1766 84.9958 38.3541C85.1895 38.5316 85.3463 38.7454 85.4574 38.9835C85.5685 39.2216 85.6315 39.4793 85.643 39.7417C85.6545 40.0042 85.6142 40.2663 85.5244 40.5132C85.4346 40.7601 85.297 40.9869 85.1195 41.1806C84.9421 41.3743 84.7282 41.5312 84.4901 41.6423C84.252 41.7533 83.9944 41.8164 83.7319 41.8279C83.4694 41.8394 83.2073 41.7991 82.9604 41.7092L77.4857 39.7172C76.9876 39.5357 76.5819 39.1637 76.3579 38.6832C76.1339 38.2027 76.1098 37.6528 76.291 37.1546ZM39.8057 43.9999L34.331 45.9919C34.0826 46.0898 33.817 46.137 33.55 46.1306C33.2831 46.1243 33.02 46.0645 32.7765 45.9548C32.533 45.8452 32.3139 45.6879 32.1322 45.4922C31.9505 45.2965 31.8098 45.0664 31.7184 44.8154C31.627 44.5645 31.5869 44.2978 31.6002 44.031C31.6136 43.7643 31.6803 43.503 31.7963 43.2624C31.9123 43.0219 32.0753 42.807 32.2757 42.6305C32.4761 42.4539 32.7098 42.3193 32.963 42.2346L38.4404 40.2426C38.9336 40.082 39.4699 40.1194 39.9362 40.3467C40.4024 40.5741 40.762 40.9738 40.9392 41.4613C41.1164 41.9488 41.0972 42.4861 40.8857 42.9597C40.6742 43.4334 40.287 43.8063 39.8057 43.9999ZM50.3204 39.7119L44.843 41.7039C44.624 41.7826 44.3931 41.8232 44.1604 41.8239C43.69 41.824 43.2346 41.6582 42.8743 41.3558C42.514 41.0535 42.2718 40.6337 42.1903 40.1705C42.1088 39.7072 42.1932 39.23 42.4286 38.8228C42.6641 38.4156 43.0355 38.1044 43.4777 37.9439L48.9524 35.9519C49.451 35.7705 50.0012 35.7946 50.4821 36.0189C50.9629 36.2432 51.335 36.6493 51.5164 37.1479C51.6978 37.6465 51.6737 38.1968 51.4494 38.6776C51.2251 39.1584 50.819 39.5305 50.3204 39.7119Z" fill="#97A2AC"/>
<path d="M43.332 126H84.6654C76.8254 126 70.0307 115.92 63.9987 115.92C57.9667 115.92 51.172 126 43.332 126Z" fill="#97A2AC"/>
<path d="M2 126H43.3333C35.4933 126 28.6987 115.92 22.6667 115.92C16.6347 115.92 9.84 126 2 126Z" fill="#97A2AC"/>
<path d="M105.335 115.92C99.3026 115.92 92.508 126 84.668 126H126.001C118.161 126 111.367 115.92 105.335 115.92Z" fill="#97A2AC"/>
<path d="M22.6657 111.92C26.799 111.92 30.4737 114.627 34.023 117.254C37.1937 119.592 40.471 122.008 43.3323 122.008C46.1937 122.008 49.4657 119.592 52.6417 117.254C55.3668 114.915 58.5557 113.178 61.999 112.158V63.0669C61.999 62.5365 62.2097 62.0278 62.5848 61.6527C62.9599 61.2776 63.4686 61.0669 63.999 61.0669C64.5294 61.0669 65.0382 61.2776 65.4132 61.6527C65.7883 62.0278 65.999 62.5365 65.999 63.0669V112.15C69.4424 113.17 72.6312 114.907 75.3563 117.246C78.527 119.584 81.8043 122 84.6657 122C87.527 122 90.799 119.584 93.975 117.246C97.5244 114.627 101.199 111.912 105.332 111.912C105.736 111.919 106.138 111.951 106.538 112.008L122.372 77.4936L65.999 46.9336V55.0136C65.999 55.544 65.7883 56.0527 65.4132 56.4278C65.0382 56.8029 64.5294 57.0136 63.999 57.0136C63.4686 57.0136 62.9599 56.8029 62.5848 56.4278C62.2097 56.0527 61.999 55.544 61.999 55.0136V46.9336L5.65234 77.4936L21.983 111.974C22.2097 111.958 22.4337 111.92 22.6657 111.92Z" fill="#97A2AC"/>
</svg>
