<svg width="128" height="128" viewBox="0 0 128 128" fill="none" xmlns="http://www.w3.org/2000/svg">
<path d="M119.548 116.791H118.624V68.1178C118.624 66.7839 117.543 65.7027 116.209 65.7027H107.056V60.2446C107.056 58.9107 105.975 57.8295 104.641 57.8295H89.1601V116.791H84.3541V45.3918C84.3541 44.0636 83.2672 42.9767 81.939 42.9767H72.3028V37.5186C72.3028 36.1903 71.216 35.1035 69.8877 35.1035H56.8461C55.4937 35.1035 54.431 36.1903 54.431 37.5186V42.9767H44.819C43.4907 42.9767 42.4039 44.0636 42.4039 45.3918V70.074C43.9496 71.1609 45.3744 72.4891 46.6545 74.0348C55.897 85.2325 50.3389 96.0538 42.4039 108.16V116.791H30.4357C34.0898 111.63 44.8697 97.6405 46.3889 89.0808V89.0326C48.0712 80.2822 39.7179 70.3274 29.459 71.1125C21.2953 71.5149 14.2198 78.4591 14.2198 87.2455C14.2198 96.1054 30.1389 116.411 30.4135 116.791H8.45416C7.12043 116.791 6.03906 117.873 6.03906 119.206C6.03906 120.54 7.12043 121.621 8.45416 121.621H119.548C120.882 121.621 121.964 120.54 121.964 119.206C121.964 117.873 120.882 116.791 119.548 116.791ZM114.204 110.485C114.204 111.818 113.123 112.9 111.789 112.9H108.978C107.644 112.9 106.563 111.818 106.563 110.485C106.563 109.151 107.644 108.069 108.978 108.069H111.789C113.123 108.069 114.204 109.151 114.204 110.485ZM107.79 72.0081H110.602C111.935 72.0081 113.017 73.0895 113.017 74.4232C113.017 75.757 111.935 76.8383 110.602 76.8383H107.79C106.457 76.8383 105.375 75.757 105.375 74.4232C105.375 73.0895 106.457 72.0081 107.79 72.0081ZM107.79 84.0282H110.602C111.935 84.0282 113.017 85.1096 113.017 86.4433C113.017 87.777 111.935 88.8584 110.602 88.8584H107.79C106.457 88.8584 105.375 87.777 105.375 86.4433C105.375 85.1096 106.457 84.0282 107.79 84.0282ZM107.79 96.0494H110.602C111.935 96.0494 113.017 97.1308 113.017 98.4645C113.017 99.7982 111.935 100.88 110.602 100.88H107.79C106.457 100.88 105.375 99.7982 105.375 98.4645C105.375 97.1308 106.457 96.0494 107.79 96.0494ZM103.602 110.485C103.602 111.818 102.52 112.9 101.186 112.9H98.3751C97.0414 112.9 95.9601 111.818 95.9601 110.485C95.9601 109.151 97.0414 108.069 98.3751 108.069H101.186C102.52 108.069 103.602 109.151 103.602 110.485ZM97.1876 72.0081H99.999C101.333 72.0081 102.414 73.0895 102.414 74.4232C102.414 75.757 101.333 76.8383 99.999 76.8383H97.1876C95.8539 76.8383 94.7726 75.757 94.7726 74.4232C94.7726 73.0895 95.8539 72.0081 97.1876 72.0081ZM97.1876 84.0282H99.999C101.333 84.0282 102.414 85.1096 102.414 86.4433C102.414 87.777 101.333 88.8584 99.999 88.8584H97.1876C95.8539 88.8584 94.7726 87.777 94.7726 86.4433C94.7726 85.1096 95.8539 84.0282 97.1876 84.0282ZM97.1876 96.0494H99.999C101.333 96.0494 102.414 97.1308 102.414 98.4645C102.414 99.7982 101.333 100.88 99.999 100.88H97.1876C95.8539 100.88 94.7726 99.7982 94.7726 98.4645C94.7726 97.1308 95.8539 96.0494 97.1876 96.0494ZM72.8103 113.296H69.1181C67.7843 113.296 66.703 112.215 66.703 110.881C66.703 109.547 67.7843 108.466 69.1181 108.466H72.8103C74.144 108.466 75.2254 109.547 75.2254 110.881C75.2254 112.215 74.144 113.296 72.8103 113.296ZM68.4895 49.5317H72.1818C73.5155 49.5317 74.5968 50.6131 74.5968 51.9468C74.5968 53.2806 73.5155 54.3619 72.1818 54.3619H68.4895C67.1558 54.3619 66.0744 53.2806 66.0744 51.9468C66.0744 50.6131 67.1558 49.5317 68.4895 49.5317ZM68.4895 61.3183H72.1818C73.5155 61.3183 74.5968 62.3997 74.5968 63.7334C74.5968 65.0671 73.5155 66.1485 72.1818 66.1485H68.4895C67.1558 66.1485 66.0744 65.0671 66.0744 63.7334C66.0744 62.3997 67.1558 61.3183 68.4895 61.3183ZM68.4895 73.1048H72.1818C73.5155 73.1048 74.5968 74.1862 74.5968 75.5199C74.5968 76.8537 73.5155 77.935 72.1818 77.935H68.4895C67.1558 77.935 66.0744 76.8537 66.0744 75.5199C66.0744 74.1862 67.1558 73.1048 68.4895 73.1048ZM68.4895 84.8914H72.1818C73.5155 84.8914 74.5968 85.9728 74.5968 87.3065C74.5968 88.6402 73.5155 89.7216 72.1818 89.7216H68.4895C67.1558 89.7216 66.0744 88.6402 66.0744 87.3065C66.0744 85.9728 67.1558 84.8914 68.4895 84.8914ZM68.4895 96.678H72.1818C73.5155 96.678 74.5968 97.7593 74.5968 99.0931C74.5968 100.427 73.5155 101.508 72.1818 101.508H68.4895C67.1558 101.508 66.0744 100.427 66.0744 99.0931C66.0744 97.7593 67.1558 96.678 68.4895 96.678ZM58.8846 113.296H55.1924C53.8586 113.296 52.7773 112.215 52.7773 110.881C52.7773 109.547 53.8586 108.466 55.1924 108.466H58.8846C60.2183 108.466 61.2997 109.547 61.2997 110.881C61.2997 112.215 60.2183 113.296 58.8846 113.296ZM54.5638 49.5317H58.256C59.5898 49.5317 60.6711 50.6131 60.6711 51.9468C60.6711 53.2806 59.5898 54.3619 58.256 54.3619H54.5638C53.2301 54.3619 52.1487 53.2806 52.1487 51.9468C52.1487 50.6131 53.2301 49.5317 54.5638 49.5317ZM54.5638 61.3183H58.256C59.5898 61.3183 60.6711 62.3997 60.6711 63.7334C60.6711 65.0671 59.5898 66.1485 58.256 66.1485H54.5638C53.2301 66.1485 52.1487 65.0671 52.1487 63.7334C52.1487 62.3997 53.2301 61.3183 54.5638 61.3183ZM54.5638 73.1048H58.256C59.5898 73.1048 60.6711 74.1862 60.6711 75.5199C60.6711 76.8537 59.5898 77.935 58.256 77.935H54.5638C53.2301 77.935 52.1487 76.8537 52.1487 75.5199C52.1487 74.1862 53.2301 73.1048 54.5638 73.1048ZM54.5638 84.8914H58.256C59.5898 84.8914 60.6711 85.9728 60.6711 87.3065C60.6711 88.6402 59.5898 89.7216 58.256 89.7216H54.5638C53.2301 89.7216 52.1487 88.6402 52.1487 87.3065C52.1487 85.9728 53.2301 84.8914 54.5638 84.8914ZM54.5638 96.678H58.256C59.5898 96.678 60.6711 97.7593 60.6711 99.0931C60.6711 100.427 59.5898 101.508 58.256 101.508H54.5638C53.2301 101.508 52.1487 100.427 52.1487 99.0931C52.1487 97.7593 53.2301 96.678 54.5638 96.678ZM24.3872 87.0039C24.3872 83.6952 27.0681 81.0145 30.3768 81.0145C33.6854 81.0145 36.3903 83.6952 36.3903 87.0039C36.3903 90.3125 33.6854 92.9934 30.3768 92.9934C27.0681 92.9934 24.3872 90.3125 24.3872 87.0039Z" fill="#97A2AC"/>
<path d="M24.3154 31.4173C24.3897 31.4244 24.4652 31.428 24.5383 31.428C25.773 31.428 26.8261 30.4869 26.9404 29.2334C27.9415 18.3365 37.5606 10.2972 48.51 11.2923C49.8402 11.4232 51.0147 10.4374 51.135 9.10838C51.2577 7.78055 50.2801 6.60484 48.9511 6.48338C35.378 5.23502 23.3785 15.2146 22.1315 28.7923C22.0088 30.1202 22.9864 31.2959 24.3154 31.4173Z" fill="#97A2AC"/>
<path d="M50.0808 18.8804C50.2035 17.5526 49.2247 16.3769 47.8969 16.2554C39.8603 15.503 32.6728 21.4724 31.9323 29.5349C31.8096 30.8627 32.7872 32.0384 34.1162 32.1599C35.433 32.2853 36.6194 31.3112 36.7412 29.9759C37.2377 24.5667 42.0596 20.5809 47.4558 21.0644C48.8073 21.1894 49.9606 20.2082 50.0808 18.8804Z" fill="#97A2AC"/>
<path d="M40.9596 33.2402C40.8292 34.6535 41.9414 35.8758 43.3665 35.8758C44.6011 35.8758 45.6542 34.9348 45.7686 33.6812C45.942 31.81 47.5927 30.4412 49.4584 30.6117C50.7934 30.7437 51.9632 29.7555 52.0834 28.4277C52.2061 27.0999 51.2285 25.9242 49.8995 25.8027C45.4327 25.383 41.3761 28.6686 40.9596 33.2402Z" fill="#97A2AC"/>
</svg>
