<svg width="128" height="128" viewBox="0 0 128 128" fill="none" xmlns="http://www.w3.org/2000/svg">
<g clip-path="url(#clip0_32_2555)">
<path d="M80.25 3.75C80.25 1.679 78.571 0 76.5 0H51.5C49.429 0 47.75 1.679 47.75 3.75V10H80.25V3.75Z" fill="#97A2AC"/>
<path d="M124.25 120.5H122.75V84.25C122.75 82.8295 121.948 81.531 120.677 80.896L111.5 76.3075V120.5H104V64.25C104 62.996 103.374 61.8253 102.33 61.13L79.83 46.13C78.6795 45.3628 77.1997 45.2912 75.9805 45.9437C74.7612 46.5962 74 47.867 74 49.25V120.5H66.5V49.25C66.5 45.0932 68.7767 41.2925 72.4417 39.331C74.0687 38.4603 75.9042 38 77.7497 38C79.979 38 82.1375 38.6535 83.9918 39.8905L87.75 42.396V21.25C87.75 19.179 86.071 17.5 84 17.5H44C41.929 17.5 40.25 19.179 40.25 21.25V25.5H46.5C52.7032 25.5 57.75 30.5468 57.75 36.75V120.5H50.25V36.75C50.25 34.679 48.571 33 46.5 33H24C21.929 33 20.25 34.679 20.25 36.75V86.75H29C35.2032 86.75 40.25 91.7968 40.25 98V120.5H32.75V98C32.75 95.929 31.071 94.25 29 94.25H9C6.929 94.25 5.25 95.929 5.25 98V120.5H3.75C1.679 120.5 0 122.179 0 124.25C0 126.321 1.679 128 3.75 128H124.25C126.321 128 128 126.321 128 124.25C128 122.179 126.321 120.5 124.25 120.5ZM85.25 76.75C85.25 74.679 86.929 73 89 73C91.071 73 92.75 74.679 92.75 76.75V84.25C92.75 86.321 91.071 88 89 88C86.929 88 85.25 86.321 85.25 84.25V76.75ZM85.25 99.25C85.25 97.179 86.929 95.5 89 95.5C91.071 95.5 92.75 97.179 92.75 99.25V106.75C92.75 108.821 91.071 110.5 89 110.5C86.929 110.5 85.25 108.821 85.25 106.75V99.25ZM39 76.75C39 78.821 37.321 80.5 35.25 80.5C33.179 80.5 31.5 78.821 31.5 76.75V69.25C31.5 67.179 33.179 65.5 35.25 65.5C37.321 65.5 39 67.179 39 69.25V76.75ZM39 54.25C39 56.321 37.321 58 35.25 58C33.179 58 31.5 56.321 31.5 54.25V46.75C31.5 44.679 33.179 43 35.25 43C37.321 43 39 44.679 39 46.75V54.25ZM15.25 111.75C15.25 109.679 16.929 108 19 108C21.071 108 22.75 109.679 22.75 111.75V120.5H15.25V111.75Z" fill="#97A2AC"/>
</g>
<defs>
<clipPath id="clip0_32_2555">
<rect width="128" height="128" fill="white"/>
</clipPath>
</defs>
</svg>
