<svg width="128" height="128" viewBox="0 0 128 128" fill="none" xmlns="http://www.w3.org/2000/svg">
<g clip-path="url(#clip0_32_2521)">
<path d="M16.762 46.5977H3.75C1.679 46.5977 0 48.2767 0 50.3477V128H16.762V46.5977Z" fill="#97A2AC"/>
<path d="M124.25 46.5977H111.238V128H128V50.3477C128 48.2767 126.321 46.5977 124.25 46.5977Z" fill="#97A2AC"/>
<path d="M70.5195 102.943V128H57.4775V102.943H70.5195Z" fill="#97A2AC"/>
<path d="M99.9877 15.4025H88.1817V3.75C88.1817 1.679 86.5027 0 84.4317 0H44.0987C42.0277 0 40.3487 1.679 40.3487 3.75V15.4025H28.0117C25.9407 15.4025 24.2617 17.0815 24.2617 19.1525V128H49.9787V99.193C49.9787 97.122 51.6577 95.443 53.7287 95.443H74.2707C76.3417 95.443 78.0207 97.122 78.0207 99.193V128H103.738V19.1525C103.738 17.0815 102.059 15.4025 99.9877 15.4025ZM47.019 82.4837H42.9805C40.9095 82.4837 39.2305 80.8047 39.2305 78.7337C39.2305 76.6627 40.9095 74.9837 42.9805 74.9837H47.019C49.09 74.9837 50.769 76.6627 50.769 78.7337C50.769 80.8047 49.09 82.4837 47.019 82.4837ZM47.019 67.4837H42.9805C40.9095 67.4837 39.2305 65.8047 39.2305 63.7337C39.2305 61.6627 40.9095 59.9837 42.9805 59.9837H47.019C49.09 59.9837 50.769 61.6627 50.769 63.7337C50.769 65.8047 49.09 67.4837 47.019 67.4837ZM47.019 52.4837H42.9805C40.9095 52.4837 39.2305 50.8047 39.2305 48.7337C39.2305 46.6627 40.9095 44.9837 42.9805 44.9837H47.019C49.09 44.9837 50.769 46.6627 50.769 48.7337C50.769 50.8047 49.09 52.4837 47.019 52.4837ZM66.019 82.4837H61.9805C59.9095 82.4837 58.2305 80.8047 58.2305 78.7337C58.2305 76.6627 59.9095 74.9837 61.9805 74.9837H66.019C68.09 74.9837 69.769 76.6627 69.769 78.7337C69.769 80.8047 68.09 82.4837 66.019 82.4837ZM66.019 67.4837H61.9805C59.9095 67.4837 58.2305 65.8047 58.2305 63.7337C58.2305 61.6627 59.9095 59.9837 61.9805 59.9837H66.019C68.09 59.9837 69.769 61.6627 69.769 63.7337C69.769 65.8047 68.09 67.4837 66.019 67.4837ZM66.019 52.4837H61.9805C59.9095 52.4837 58.2305 50.8047 58.2305 48.7337C58.2305 46.6627 59.9095 44.9837 61.9805 44.9837H66.019C68.09 44.9837 69.769 46.6627 69.769 48.7337C69.769 50.8047 68.09 52.4837 66.019 52.4837ZM71.5575 30.0578H67.7497V33.8655C67.7497 35.9365 66.0707 37.6155 63.9997 37.6155C61.9287 37.6155 60.2497 35.9365 60.2497 33.8655V30.0578H56.442C54.371 30.0578 52.692 28.3788 52.692 26.3078C52.692 24.2368 54.371 22.5578 56.442 22.5578H60.2497V18.75C60.2497 16.679 61.9287 15 63.9997 15C66.0707 15 67.7497 16.679 67.7497 18.75V22.5578H71.5575C73.6285 22.5578 75.3075 24.2368 75.3075 26.3078C75.3075 28.3788 73.6285 30.0578 71.5575 30.0578ZM85.019 82.4837H80.9805C78.9095 82.4837 77.2305 80.8047 77.2305 78.7337C77.2305 76.6627 78.9095 74.9837 80.9805 74.9837H85.019C87.09 74.9837 88.769 76.6627 88.769 78.7337C88.769 80.8047 87.09 82.4837 85.019 82.4837ZM85.019 67.4837H80.9805C78.9095 67.4837 77.2305 65.8047 77.2305 63.7337C77.2305 61.6627 78.9095 59.9837 80.9805 59.9837H85.019C87.09 59.9837 88.769 61.6627 88.769 63.7337C88.769 65.8047 87.09 67.4837 85.019 67.4837ZM85.019 52.4837H80.9805C78.9095 52.4837 77.2305 50.8047 77.2305 48.7337C77.2305 46.6627 78.9095 44.9837 80.9805 44.9837H85.019C87.09 44.9837 88.769 46.6627 88.769 48.7337C88.769 50.8047 87.09 52.4837 85.019 52.4837Z" fill="#97A2AC"/>
</g>
<defs>
<clipPath id="clip0_32_2521">
<rect width="128" height="128" fill="white"/>
</clipPath>
</defs>
</svg>
