<svg width="128" height="128" viewBox="0 0 128 128" fill="none" xmlns="http://www.w3.org/2000/svg">
<path fill-rule="evenodd" clip-rule="evenodd" d="M114.583 51.0947V113.714H124.75C125.438 113.714 126 114.275 126 114.964V123.75C126 124.438 125.438 125 124.75 125H3.25C2.5615 125 2 124.438 2 123.75V114.964C2 114.275 2.5615 113.714 3.25 113.714H13.4167V51.0938C14.9602 51.5473 16.5933 51.7918 18.2835 51.7918C20.1558 51.7918 22.014 51.4913 23.7885 50.8935C28.0682 49.4523 31.4998 46.4342 33.5213 42.6145C36.4148 48.0727 42.1535 51.7918 48.7612 51.7918C50.6335 51.7918 52.4918 51.4913 54.2663 50.8935C58.546 49.4523 61.9775 46.4342 63.999 42.6145C66.8925 48.0727 72.6312 51.7918 79.239 51.7918C81.1112 51.7918 82.9695 51.4913 84.744 50.8935C89.0238 49.4523 92.4553 46.4342 94.4768 42.6145C97.3703 48.0727 103.109 51.7918 109.717 51.7918C111.366 51.792 113.004 51.5585 114.583 51.0947ZM36.1175 32.553L43.9062 3H62V32.553H36.1175ZM39.7695 3H22.0557C21.8457 3 21.7095 3.08275 21.6125 3.26875L6.343 32.553H31.981L39.7695 3ZM5.1945 36.553C6.1585 42.9163 11.6508 47.792 18.2833 47.792C19.7218 47.792 21.1482 47.562 22.5117 47.103C27.2482 45.508 30.632 41.397 31.3708 36.5532L5.1945 36.553ZM35.6722 36.553C36.6362 42.9163 42.1285 47.792 48.761 47.792C50.1995 47.792 51.626 47.562 52.9895 47.103C57.726 45.508 61.1097 41.397 61.8485 36.5532L35.6722 36.553ZM66.15 36.553C67.114 42.9163 72.6062 47.792 79.2387 47.792C80.6772 47.792 82.1037 47.562 83.4672 47.103C88.2037 45.508 91.5875 41.397 92.3262 36.5532L66.15 36.553ZM91.8825 32.553L84.094 3H66V32.553H91.8825ZM96.6277 36.553C97.5917 42.9163 103.084 47.792 109.716 47.792C111.155 47.792 112.581 47.562 113.945 47.103C118.681 45.508 122.065 41.397 122.804 36.5532L96.6277 36.553ZM88.2305 3H105.944C106.154 3 106.29 3.08275 106.387 3.26875L121.657 32.553H96.019L88.2305 3ZM72.3372 91.2655C70.9602 91.2655 69.8372 92.3885 69.8372 93.7655V96.508C69.8372 97.885 70.9602 99.008 72.3372 99.008H99.2285C100.606 99.008 101.729 97.885 101.729 96.508V93.7655C101.729 92.3885 100.606 91.2655 99.2285 91.2655H72.3372ZM72.3372 62.3237C70.9602 62.3237 69.8372 63.4468 69.8372 64.8238V80.1015C69.8372 81.4785 70.9602 82.6015 72.3372 82.6015H99.2285C100.606 82.6015 101.729 81.4785 101.729 80.1015V64.8238C101.729 63.4468 100.606 62.3237 99.2285 62.3237H72.3372ZM29.8468 62.3237C28.4698 62.3237 27.3468 63.4468 27.3468 64.8238V113.714H55.1825V64.8238C55.1825 63.4468 54.0595 62.3237 52.6825 62.3237H29.8468Z" fill="#97A2AC"/>
</svg>
