<svg width="128" height="128" viewBox="0 0 128 128" fill="none" xmlns="http://www.w3.org/2000/svg">
<path fill-rule="evenodd" clip-rule="evenodd" d="M7.43522 100.777H60.0235C60.7162 104.254 61.9535 107.535 63.642 110.527H7.43522C6.84047 110.527 6.35547 110.042 6.35547 109.447V101.857C6.35522 101.262 6.84047 100.777 7.43522 100.777ZM16.2185 48.1209V96.7769H28.253V58.5394C28.253 57.3499 29.2232 56.3796 30.4127 56.3796H50.1412C51.3307 56.3796 52.301 57.3499 52.301 58.5394V96.7769H59.4762C59.4142 95.9491 59.3827 95.1129 59.3827 94.2694C59.3827 86.5411 62.0287 79.4309 66.4645 73.7954C65.5945 73.5161 64.962 72.6986 64.962 71.7381V58.5394C64.962 57.3499 65.9322 56.3796 67.1217 56.3796H90.3537C91.5432 56.3796 92.5135 57.3499 92.5135 58.5394V61.1389C96.409 61.1389 100.147 61.8111 103.619 63.0461V48.1209C102.741 48.2736 101.837 48.3534 100.915 48.3534C95.227 48.3534 90.0227 45.2856 87.2497 40.3521C84.4765 45.2856 79.2725 48.3534 73.5842 48.3534C67.8962 48.3534 62.6917 45.2856 59.919 40.3521C57.1462 45.2856 51.9417 48.3534 46.2537 48.3534C40.5657 48.3534 35.3615 45.2856 32.5885 40.3521C29.8155 45.2856 24.611 48.3534 18.923 48.3534C18.0005 48.3534 17.097 48.2736 16.2185 48.1209ZM92.5135 65.1386C76.425 65.1386 63.3827 78.1809 63.3827 94.2694C63.3827 110.358 76.425 123.4 92.5135 123.4C108.602 123.4 121.644 110.358 121.644 94.2694C121.644 78.1809 108.602 65.1386 92.5135 65.1386ZM79.1472 82.1869H75.2045C74.1 82.1869 73.2045 81.2914 73.2045 80.1869C73.2045 79.0824 74.1 78.1869 75.2045 78.1869L80.6897 78.1951C81.579 78.1944 82.3895 78.7936 82.6195 79.6949L83.5927 83.4839H109.823C111.205 83.4839 112.156 84.8491 111.715 86.1336L108.777 98.3241C108.155 100.906 105.908 102.691 103.249 102.691H85.531C85.2347 102.691 84.9852 102.94 84.9852 103.236C84.9852 103.532 85.235 103.782 85.531 103.782H107.325C108.43 103.782 109.325 104.677 109.325 105.782C109.325 106.886 108.43 107.782 107.325 107.782H106.283C106.838 108.314 107.183 109.063 107.183 109.892C107.183 111.507 105.874 112.816 104.26 112.816C102.645 112.816 101.336 111.507 101.336 109.892C101.336 109.063 101.682 108.314 102.236 107.782H89.128C89.6827 108.314 90.0282 109.063 90.0282 109.892C90.0282 111.507 88.7192 112.816 87.1047 112.816C85.4902 112.816 84.1812 111.507 84.1812 109.892C84.1812 109.052 84.5357 108.295 85.1032 107.761C82.7985 107.545 80.985 105.596 80.985 103.236C80.985 101.507 81.97 99.9346 83.5082 99.1666C82.0545 93.5066 80.6007 87.8469 79.1472 82.1869ZM8.54672 30.6881H31.0517L37.9272 4.59961H22.3057C22.1847 4.59961 22.1402 4.61586 22.0835 4.72686L8.54672 30.6881ZM35.1787 30.6881L42.054 4.59961H57.9187V30.6881H35.1787ZM61.9187 30.6881H84.659L77.7835 4.59961H61.9187V30.6881ZM97.532 4.59961C97.7215 4.59961 97.7525 4.72386 97.8302 4.87311L111.291 30.6881H88.7857L81.9105 4.59961H97.532ZM112.409 34.6881C111.446 40.2649 106.588 44.3534 100.915 44.3534C95.2415 44.3534 90.3837 40.2649 89.4205 34.6881H112.409ZM85.0785 34.6881C84.1152 40.2651 79.2575 44.3534 73.5842 44.3534C67.9112 44.3534 63.0532 40.2649 62.09 34.6881H85.0785ZM57.7477 34.6881C56.7845 40.2651 51.9265 44.3534 46.2535 44.3534C40.5802 44.3534 35.7227 40.2651 34.7592 34.6881H57.7477ZM30.4172 34.6881C29.454 40.2651 24.596 44.3534 18.9227 44.3534C13.2497 44.3534 8.39147 40.2649 7.42822 34.6881H30.4172Z" fill="#97A2AC"/>
</svg>
