<svg width="128" height="128" viewBox="0 0 128 128" fill="none" xmlns="http://www.w3.org/2000/svg">
<path d="M42 116H52V113.012L51.682 112.778C48.7392 110.613 45.4712 108.928 42 107.788V116Z" fill="#97A2AC"/>
<path d="M52 91.0121L51.682 90.7781C48.7392 88.6126 45.4712 86.9283 42 85.7881V103.624C45.533 104.653 48.9005 106.183 52 108.166V91.0121Z" fill="#97A2AC"/>
<path d="M42 25.5283V41.6243C45.533 42.6534 48.9005 44.1829 52 46.1663V33.2763C52.0003 32.102 51.6559 30.9533 51.0096 29.9728C50.3632 28.9923 49.4434 28.223 48.364 27.7603L47.484 27.3823C45.7014 26.6375 43.8689 26.018 42 25.5283Z" fill="#97A2AC"/>
<path d="M48 23.284V10.884C48.0001 10.4641 47.868 10.0548 47.6225 9.7141C47.3769 9.37343 47.0304 9.1187 46.632 8.986L44 8.11C35.5587 5.31421 26.4409 5.31491 18 8.112L15.376 8.984C14.9761 9.11533 14.6278 9.36948 14.3808 9.71026C14.1337 10.051 14.0005 10.4611 14 10.882V23.282C24.9183 18.9436 37.0822 18.9443 48 23.284Z" fill="#97A2AC"/>
<path d="M52 71.0121L51.682 70.7781C48.7392 68.6126 45.4712 66.9283 42 65.7881V81.6241C45.533 82.6532 48.9005 84.1827 52 86.1661V71.0121Z" fill="#97A2AC"/>
<path d="M52 51.0121L51.682 50.7781C48.7392 48.6126 45.4712 46.9283 42 45.7881V61.6241C45.533 62.6532 48.9005 64.1827 52 66.1661V51.0121Z" fill="#97A2AC"/>
<path d="M74 88H84V116H74V88Z" fill="#97A2AC"/>
<path d="M104 83C104 82.7348 103.895 82.4804 103.707 82.2929C103.52 82.1054 103.265 82 103 82H69C68.7348 82 68.4804 82.1054 68.2929 82.2929C68.1054 82.4804 68 82.7348 68 83C68 83.2652 68.1054 83.5196 68.2929 83.7071C68.4804 83.8946 68.7348 84 69 84H103C103.265 84 103.52 83.8946 103.707 83.7071C103.895 83.5196 104 83.2652 104 83Z" fill="#97A2AC"/>
<path d="M70 88.0002H69C67.6739 88.0002 66.4021 87.4734 65.4645 86.5358C64.5268 85.5981 64 84.3263 64 83.0002C64 81.6741 64.5268 80.4024 65.4645 79.4647C66.4021 78.527 67.6739 78.0002 69 78.0002H103C104.326 78.0002 105.598 78.527 106.536 79.4647C107.473 80.4024 108 81.6741 108 83.0002C108 84.3263 107.473 85.5981 106.536 86.5358C105.598 87.4734 104.326 88.0002 103 88.0002H102V116H118V47.4402C118.001 46.9613 117.829 46.4981 117.517 46.1347C117.205 45.7714 116.773 45.5321 116.3 45.4602L56 36.3242V116H70V88.0002ZM106 48.0002H110V62.0002H116V66.0002H108C107.47 66.0002 106.961 65.7895 106.586 65.4144C106.211 65.0394 106 64.5307 106 64.0002V48.0002ZM94 48.0002H98V62.0002H104V66.0002H96C95.4696 66.0002 94.9609 65.7895 94.5858 65.4144C94.2107 65.0394 94 64.5307 94 64.0002V48.0002ZM80.06 49.5162C80.168 49.0834 80.4175 48.699 80.7691 48.4243C81.1206 48.1496 81.5539 48.0003 82 48.0002H86C86.4461 48.0003 86.8794 48.1496 87.2309 48.4243C87.5825 48.699 87.832 49.0834 87.94 49.5162L91.94 65.5162L88.06 66.4842L86.438 60.0002H81.562L79.94 66.4842L76.06 65.5162L80.06 49.5162ZM62 66.0002H58V50.0002C58 49.4698 58.2107 48.9611 58.5858 48.586C58.9609 48.2109 59.4696 48.0002 60 48.0002H62C62.4 48.0001 62.7908 48.1199 63.122 48.3441C63.4532 48.5684 63.7096 48.8868 63.858 49.2582L66 54.6162L68.142 49.2582C68.2904 48.8868 68.5468 48.5684 68.878 48.3441C69.2092 48.1199 69.6 48.0001 70 48.0002H72C72.5304 48.0002 73.0391 48.2109 73.4142 48.586C73.7893 48.9611 74 49.4698 74 50.0002V66.0002H70V55.3842L67.858 60.7422C67.7099 61.114 67.4537 61.4328 67.1224 61.6574C66.7912 61.882 66.4002 62.0021 66 62.0021C65.5998 62.0021 65.2088 61.882 64.8776 61.6574C64.5463 61.4328 64.2901 61.114 64.142 60.7422L62 55.3842V66.0002Z" fill="#97A2AC"/>
<path d="M88 88H98V116H88V88Z" fill="#97A2AC"/>
<path d="M84.4385 52H83.5625L82.5625 56H85.4385L84.4385 52Z" fill="#97A2AC"/>
<path d="M20 85.8574C17.0448 86.8392 14.2359 88.2164 11.65 89.9514L10 91.0634V108.263C13.0948 106.251 16.4625 104.694 20 103.639V85.8574Z" fill="#97A2AC"/>
<path d="M20 65.8574C17.0448 66.8392 14.2359 68.2164 11.65 69.9514L10 71.0634V86.2634C13.0948 84.2513 16.4625 82.6941 20 81.6394V65.8574Z" fill="#97A2AC"/>
<path d="M121 120H7C6.73478 120 6.48043 120.105 6.29289 120.293C6.10536 120.48 6 120.735 6 121C6 121.265 6.10536 121.52 6.29289 121.707C6.48043 121.895 6.73478 122 7 122H121C121.265 122 121.52 121.895 121.707 121.707C121.895 121.52 122 121.265 122 121C122 120.735 121.895 120.48 121.707 120.293C121.52 120.105 121.265 120 121 120Z" fill="#97A2AC"/>
<path d="M20 45.8574C17.0448 46.8392 14.2359 48.2164 11.65 49.9514L10 51.0634V66.2634C13.0948 64.2513 16.4625 62.6941 20 61.6394V45.8574Z" fill="#97A2AC"/>
<path d="M38 84.746C33.3804 83.8053 28.6183 83.8087 24 84.756V102.702C28.6261 101.845 33.3691 101.831 38 102.662V84.746Z" fill="#97A2AC"/>
<path d="M20 107.857C17.0448 108.839 14.2359 110.216 11.65 111.951L10 113.063V115.999H20V107.857Z" fill="#97A2AC"/>
<path d="M20 25.5283C18.1303 26.0177 16.2972 26.6372 14.514 27.3823L13.636 27.7603C12.5566 28.223 11.6368 28.9923 10.9904 29.9728C10.3441 30.9533 9.99974 32.102 10 33.2763V46.2763C13.0948 44.2642 16.4625 42.707 20 41.6523V25.5283Z" fill="#97A2AC"/>
<path d="M38 64.746C33.3804 63.8053 28.6183 63.8087 24 64.756V80.702C28.6261 79.8448 33.3691 79.8312 38 80.662V64.746Z" fill="#97A2AC"/>
<path d="M24 106.756V116H38V106.746C33.3804 105.805 28.6183 105.809 24 106.756Z" fill="#97A2AC"/>
<path d="M38 24.6475C33.3659 23.8675 28.6341 23.8675 24 24.6475V40.7015C28.626 39.8433 33.3692 39.8297 38 40.6615V24.6475Z" fill="#97A2AC"/>
<path d="M38 44.7461C33.3811 43.8021 28.6189 43.8021 24 44.7461V60.6941C28.6261 59.8369 33.3691 59.8233 38 60.6541V44.7461Z" fill="#97A2AC"/>
</svg>
