<svg width="128" height="128" viewBox="0 0 128 128" fill="none" xmlns="http://www.w3.org/2000/svg">
<path d="M67.324 88.225H102.474V104.375H67.324V88.225ZM115.774 71.2V123.375H55.924V86.8C55.924 86.4221 55.7739 86.0596 55.5066 85.7924C55.2394 85.5251 54.877 85.375 54.499 85.375H24.0973C23.7193 85.375 23.3569 85.5251 23.0896 85.7924C22.8224 86.0596 22.6723 86.4221 22.6723 86.8V123.375H12.224V71.2C17.0515 74.757 24.581 72.7958 27.2655 67.5452C30.9618 74.7382 41.935 74.7405 45.6325 67.5452C49.3283 74.7385 60.3018 74.7403 63.999 67.5452C67.695 74.7378 78.6685 74.741 82.3655 67.5452C86.0618 74.7382 97.035 74.7405 100.733 67.5452C103.417 72.795 110.945 74.7567 115.774 71.2ZM105.324 86.8C105.324 86.4221 105.174 86.0596 104.907 85.7924C104.639 85.5251 104.277 85.375 103.899 85.375H65.899C65.5211 85.375 65.1586 85.5251 64.8914 85.7924C64.6242 86.0596 64.474 86.4221 64.474 86.8V105.8C64.474 106.178 64.6242 106.54 64.8914 106.808C65.1586 107.075 65.5211 107.225 65.899 107.225H103.899C104.277 107.225 104.639 107.075 104.907 106.808C105.174 106.54 105.324 106.178 105.324 105.8V86.8ZM25.524 88.225H53.074V123.375H25.524V88.225ZM30.274 111.5C30.2823 113.364 33.1158 113.362 33.124 111.5V107.7C33.1158 105.836 30.2823 105.838 30.274 107.7V111.5ZM91.074 39.775H36.924V7C36.9246 6.37029 37.175 5.76655 37.6203 5.32128C38.0656 4.87601 38.6693 4.6256 39.299 4.625H88.699C89.3287 4.6256 89.9325 4.87601 90.3777 5.32128C90.823 5.76655 91.0734 6.37029 91.074 7V39.775ZM53.074 18.4C53.0823 20.2645 55.916 20.2617 55.924 18.4V12.7C55.9158 10.8355 53.0823 10.8382 53.074 12.7V18.4ZM61.624 12.7C61.624 12.3221 61.4739 11.9596 61.2066 11.6924C60.9394 11.4251 60.577 11.275 60.199 11.275C59.8211 11.275 59.4586 11.4251 59.1914 11.6924C58.9242 11.9596 58.774 12.3221 58.774 12.7V18.4C58.774 19.5338 58.3236 20.6212 57.5219 21.4229C56.7202 22.2246 55.6328 22.675 54.499 22.675C53.3652 22.675 52.2779 22.2246 51.4761 21.4229C50.6744 20.6212 50.224 19.5338 50.224 18.4V12.7C50.224 12.3221 50.0739 11.9596 49.8066 11.6924C49.5394 11.4251 49.177 11.275 48.799 11.275C48.4211 11.275 48.0586 11.4251 47.7914 11.6924C47.5242 11.9596 47.374 12.3221 47.374 12.7V18.4C47.3761 20.0417 47.9442 21.6325 48.9826 22.9042C50.0209 24.1758 51.4659 25.0506 53.074 25.381V33.6C53.074 33.9779 53.2242 34.3404 53.4914 34.6076C53.7586 34.8749 54.1211 35.025 54.499 35.025C54.877 35.025 55.2394 34.8749 55.5066 34.6076C55.7739 34.3404 55.924 33.9779 55.924 33.6V25.381C57.5322 25.0506 58.9772 24.1759 60.0155 22.9042C61.0539 21.6325 61.6219 20.0417 61.624 18.4V12.7ZM66.3788 17.5845L66.6663 19.5987C66.8737 20.9955 67.5027 22.2957 68.4691 23.3254C69.4354 24.355 70.6932 25.065 72.074 25.3605V33.6C72.074 33.9779 72.2241 34.3404 72.4914 34.6076C72.7586 34.8749 73.1211 35.025 73.499 35.025C73.8769 35.025 74.2394 34.8749 74.5066 34.6076C74.7739 34.3404 74.924 33.9779 74.924 33.6V25.3605C76.3046 25.065 77.562 24.3551 78.5283 23.3257C79.4945 22.2963 80.1234 20.9965 80.331 19.6L80.6188 17.5858C81.599 6.756 65.4008 6.75 66.378 17.5845H66.3788ZM18.082 70.175C22.3598 70.175 25.8398 66.5522 25.8398 62.1V50.225H10.324V62.1C10.324 66.5522 13.8043 70.175 18.082 70.175ZM73.499 12.225C70.934 12.165 68.7783 14.65 69.201 17.182L69.4885 19.196C69.6244 20.163 70.105 21.0484 70.842 21.6891C71.579 22.3298 72.5226 22.6826 73.4991 22.6826C74.4757 22.6826 75.4193 22.3298 76.1563 21.6891C76.8933 21.0484 77.3739 20.163 77.5098 19.196L77.7973 17.182C78.2188 14.65 76.0638 12.1645 73.499 12.225ZM73.1828 70.175C77.4605 70.175 80.9405 66.5522 80.9405 62.1V50.225H65.424V62.1C65.424 66.5522 68.9043 70.175 73.182 70.175H73.1828ZM91.549 70.175C95.8268 70.175 99.3078 66.5522 99.3078 62.1V50.225H83.7898V62.1C83.7898 66.5522 87.2705 70.175 91.549 70.175ZM36.449 70.175C40.7268 70.175 44.2078 66.5522 44.2078 62.1V50.225H28.6898V62.1C28.6898 66.5522 32.1705 70.175 36.449 70.175ZM122.768 44.665L120.053 25.665C119.97 25.1001 119.687 24.5837 119.256 24.2095C118.825 23.8353 118.274 23.6282 117.703 23.6257H93.924V41.2007C93.924 41.5787 93.7739 41.9411 93.5066 42.2084C93.2394 42.4756 92.8769 42.6258 92.499 42.6258H35.499C35.1211 42.6258 34.7586 42.4756 34.4914 42.2084C34.2242 41.9411 34.074 41.5787 34.074 41.2007V23.625H10.2935C9.72259 23.6274 9.17146 23.8345 8.74024 24.2087C8.30902 24.5829 8.02633 25.0994 7.94352 25.6642L5.22877 44.6642C5.18308 45.0006 5.20959 45.3428 5.30654 45.6682C5.40348 45.9935 5.56863 46.2944 5.79098 46.5509C6.01333 46.8073 6.28778 47.0135 6.59605 47.1556C6.90432 47.2977 7.23933 47.3725 7.57877 47.375C7.26627 47.6025 120.204 47.3657 120.415 47.375C120.755 47.3728 121.09 47.2982 121.398 47.1563C121.707 47.0143 121.982 46.8083 122.204 46.5519C122.427 46.2954 122.592 45.9945 122.689 45.6692C122.786 45.3438 122.813 45.0015 122.768 44.665ZM54.8148 70.175C59.0925 70.175 62.5733 66.5522 62.5733 62.1V50.225H47.057V62.1C47.057 66.5522 50.5368 70.175 54.8148 70.175ZM102.157 62.1C102.432 72.7517 117.401 72.7465 117.673 62.1V50.225H102.157V62.1Z" fill="#97A2AC"/>
</svg>
