<svg width="128" height="128" viewBox="0 0 128 128" fill="none" xmlns="http://www.w3.org/2000/svg">
<path d="M112.24 45.6603C113.245 40.2493 115.516 29.4657 116.56 24.0603C116.611 23.8016 116.611 23.5352 116.56 23.2766C116.508 23.0179 116.406 22.7719 116.259 22.5528C116.112 22.3336 115.924 22.1455 115.704 21.9992C115.485 21.8529 115.239 21.7513 114.98 21.7003L97.72 18.2403C97.3537 18.1729 96.9759 18.2084 96.6285 18.3426C96.2811 18.4769 95.9777 18.7048 95.7519 19.001C95.5262 19.2972 95.3869 19.6501 95.3494 20.0207C95.312 20.3912 95.378 20.7649 95.54 21.1003L97.84 25.7203L93.94 29.0803C93.6587 29.3268 93.4518 29.647 93.3425 30.0048C93.2333 30.3625 93.2261 30.7437 93.3217 31.1053C93.4173 31.467 93.6119 31.7948 93.8837 32.0518C94.1555 32.3088 94.4936 32.4849 94.86 32.5603L110.155 35.6191L108.499 43.92C86.9665 35.1874 45.4132 35.0078 22.766 42.7252L21.3529 35.6217L36.66 32.5603C37.0237 32.4809 37.3584 32.3028 37.6273 32.0454C37.8961 31.788 38.0888 31.4614 38.1839 31.1015C38.279 30.7417 38.273 30.3625 38.1664 30.0059C38.0599 29.6493 37.8569 29.329 37.58 29.0803L33.68 25.7203L35.98 21.1003C36.1402 20.7648 36.2049 20.3917 36.1667 20.0219C36.1285 19.652 35.9891 19.2999 35.7637 19.0043C35.5384 18.7086 35.2358 18.4808 34.8893 18.346C34.5429 18.2113 34.1659 18.1746 33.8 18.2403L16.52 21.7003C16.2622 21.752 16.0172 21.8542 15.799 22.001C15.5809 22.1478 15.394 22.3363 15.249 22.5557C15.104 22.775 15.0038 23.0209 14.9542 23.2791C14.9046 23.5373 14.9066 23.8028 14.96 24.0603C16.0017 29.0725 17.952 39.1391 18.9678 44.1372C12.2285 46.9937 7.99822 50.6995 8 55.2003V76.9603C17.9864 83.1465 28.6816 84.8657 48.4998 86.8409C52.7249 82.9441 58.262 80.7804 64.0098 80.7803C69.7575 80.7802 75.2947 82.9436 79.52 86.8403C96.5 85.5403 109.12 82.4803 116 79.1403C117.431 78.4822 118.774 77.6491 120 76.6603V55.2003C120 51.4603 117.08 48.2803 112.24 45.6603ZM90.08 44.4203C95.951 45.2865 101.694 46.8653 107.183 49.1218L93.7453 58.2833C90.9212 56.6355 87.8709 55.4105 84.6915 54.6473C84.7094 54.6473 90.0445 44.3889 90.08 44.4203ZM67.2608 42.4203C73.4889 42.5045 79.7065 42.9586 85.8808 43.7804L80.6448 53.7512C76.2287 52.9172 71.7532 52.4357 67.2608 52.3112V42.4203ZM44.64 43.4603C50.8224 42.761 57.0389 42.4071 63.2607 42.4003V52.2432C58.4906 52.2667 53.7299 52.6696 49.0237 53.4482L44.64 43.4603ZM40.5086 44.0021L45.0093 54.2532C41.286 55.0178 37.7057 56.3612 34.3985 58.2347L22.104 48.5788C28.0394 46.3406 34.2163 44.8047 40.5086 44.0021ZM29.8495 64.0476C17.4946 60.6876 8.5863 56.0318 18.0852 50.5096L31.309 60.8943C30.5502 61.7966 30.0464 62.8853 29.8495 64.0476ZM94.3152 64.9412C79.2003 68.5867 48.8606 68.5776 33.74 64.9598C33.6913 63.9614 34.6887 62.9318 35.5488 62.2893C42.987 56.1362 68.9302 54.7355 81.3067 57.9421C85.2902 58.6236 89.097 60.0954 92.5029 62.2708C93.336 62.9345 94.3453 63.9346 94.3152 64.9412ZM98.24 64.0403C97.9983 62.9424 97.5171 61.9114 96.8307 61.021L111.119 51.2798C118.626 56.4764 109.78 60.8688 98.24 64.0403Z" fill="#97A2AC"/>
<path d="M12 83.7002C10.6307 83.1231 9.29518 82.4687 8 81.7402V91.7202C8 100.12 22.76 105.74 41.1 108.28V104.28C40.9812 99.3886 42.4321 94.5875 45.24 90.5802C32.84 89.4602 20.4 87.2202 12 83.7002Z" fill="#97A2AC"/>
<path d="M82.8008 90.5799C86.5895 95.685 87.1733 102.039 86.9005 108.28C105.241 105.74 120.001 100.12 120.001 91.7199V81.4199C109.773 87.1381 96.9565 89.0539 82.8008 90.5799Z" fill="#97A2AC"/>
<path d="M64.0007 84.7803C61.4275 84.79 58.8831 85.3224 56.5218 86.3451C54.1606 87.3677 52.0317 88.8595 50.2643 90.7297C48.497 92.5999 47.1279 94.8097 46.2403 97.225C45.3527 99.6402 44.965 102.211 45.1007 104.78V108.76C57.6623 110.15 70.339 110.15 82.9007 108.76V104.78C83.0298 102.212 82.6376 99.6446 81.7475 97.2322C80.8575 94.8198 79.4882 92.6126 77.7221 90.7437C75.956 88.8749 73.8298 87.383 71.4715 86.3581C69.1133 85.3332 66.5719 84.7965 64.0007 84.7803Z" fill="#97A2AC"/>
</svg>
