<svg width="2880" height="1096" viewBox="0 0 2880 1096" fill="none" xmlns="http://www.w3.org/2000/svg">
<g clip-path="url(#clip0_219_8)">
<path d="M2880 0H0V1095.8H2880V0Z" fill="#1E3F59"/>
<g opacity="0.11">
<path d="M261.88 745.587H104.941V1095.81H261.88V745.587Z" stroke="white" stroke-width="7.02439" stroke-miterlimit="10"/>
<path d="M122.559 770.688H244.274" stroke="white" stroke-width="7.02439" stroke-miterlimit="10"/>
<path d="M122.559 786.479H244.274" stroke="white" stroke-width="7.02439" stroke-miterlimit="10"/>
<path d="M122.559 802.266H244.274" stroke="white" stroke-width="7.02439" stroke-miterlimit="10"/>
<path d="M122.559 818.057H244.274" stroke="white" stroke-width="7.02439" stroke-miterlimit="10"/>
<path d="M122.559 833.848H244.274" stroke="white" stroke-width="7.02439" stroke-miterlimit="10"/>
<path d="M122.559 849.639H244.274" stroke="white" stroke-width="7.02439" stroke-miterlimit="10"/>
<path d="M122.559 865.43H244.274" stroke="white" stroke-width="7.02439" stroke-miterlimit="10"/>
<path d="M122.559 881.22H244.274" stroke="white" stroke-width="7.02439" stroke-miterlimit="10"/>
<path d="M122.559 897.011H244.274" stroke="white" stroke-width="7.02439" stroke-miterlimit="10"/>
<path d="M122.559 912.802H244.274" stroke="white" stroke-width="7.02439" stroke-miterlimit="10"/>
<path d="M122.559 928.593H244.274" stroke="white" stroke-width="7.02439" stroke-miterlimit="10"/>
<path d="M122.559 944.384H244.274" stroke="white" stroke-width="7.02439" stroke-miterlimit="10"/>
<path d="M122.559 960.174H244.274" stroke="white" stroke-width="7.02439" stroke-miterlimit="10"/>
<path d="M122.559 975.962H244.274" stroke="white" stroke-width="7.02439" stroke-miterlimit="10"/>
<path d="M122.559 991.752H244.274" stroke="white" stroke-width="7.02439" stroke-miterlimit="10"/>
<path d="M122.559 1007.54H244.274" stroke="white" stroke-width="7.02439" stroke-miterlimit="10"/>
<path d="M122.559 1023.33H244.274" stroke="white" stroke-width="7.02439" stroke-miterlimit="10"/>
<path d="M122.559 1039.13H244.274" stroke="white" stroke-width="7.02439" stroke-miterlimit="10"/>
<path d="M122.559 1054.92H244.274" stroke="white" stroke-width="7.02439" stroke-miterlimit="10"/>
<path d="M122.559 1070.71H244.274" stroke="white" stroke-width="7.02439" stroke-miterlimit="10"/>
<path d="M225.227 701.281H141.602V745.587H225.227V701.281Z" stroke="white" stroke-width="7.02439" stroke-miterlimit="10"/>
<path d="M2063.1 745.587H1906.16V1095.81H2063.1V745.587Z" stroke="white" stroke-width="7.02439" stroke-miterlimit="10"/>
<path d="M1923.78 770.688H2045.5" stroke="white" stroke-width="7.02439" stroke-miterlimit="10"/>
<path d="M1923.78 786.479H2045.5" stroke="white" stroke-width="7.02439" stroke-miterlimit="10"/>
<path d="M1923.78 802.266H2045.5" stroke="white" stroke-width="7.02439" stroke-miterlimit="10"/>
<path d="M1923.78 818.057H2045.5" stroke="white" stroke-width="7.02439" stroke-miterlimit="10"/>
<path d="M1923.78 833.848H2045.5" stroke="white" stroke-width="7.02439" stroke-miterlimit="10"/>
<path d="M1923.78 849.639H2045.5" stroke="white" stroke-width="7.02439" stroke-miterlimit="10"/>
<path d="M1923.78 865.43H2045.5" stroke="white" stroke-width="7.02439" stroke-miterlimit="10"/>
<path d="M1923.78 881.22H2045.5" stroke="white" stroke-width="7.02439" stroke-miterlimit="10"/>
<path d="M1923.78 897.011H2045.5" stroke="white" stroke-width="7.02439" stroke-miterlimit="10"/>
<path d="M1923.78 912.802H2045.5" stroke="white" stroke-width="7.02439" stroke-miterlimit="10"/>
<path d="M1923.78 928.593H2045.5" stroke="white" stroke-width="7.02439" stroke-miterlimit="10"/>
<path d="M1923.78 944.384H2045.5" stroke="white" stroke-width="7.02439" stroke-miterlimit="10"/>
<path d="M1923.78 960.174H2045.5" stroke="white" stroke-width="7.02439" stroke-miterlimit="10"/>
<path d="M1923.78 975.962H2045.5" stroke="white" stroke-width="7.02439" stroke-miterlimit="10"/>
<path d="M1923.78 991.752H2045.5" stroke="white" stroke-width="7.02439" stroke-miterlimit="10"/>
<path d="M1923.78 1007.54H2045.5" stroke="white" stroke-width="7.02439" stroke-miterlimit="10"/>
<path d="M1923.78 1023.33H2045.5" stroke="white" stroke-width="7.02439" stroke-miterlimit="10"/>
<path d="M1923.78 1039.13H2045.5" stroke="white" stroke-width="7.02439" stroke-miterlimit="10"/>
<path d="M1923.78 1054.92H2045.5" stroke="white" stroke-width="7.02439" stroke-miterlimit="10"/>
<path d="M1923.78 1070.71H2045.5" stroke="white" stroke-width="7.02439" stroke-miterlimit="10"/>
<path d="M2026.45 701.281H1942.82V745.587H2026.45V701.281Z" stroke="white" stroke-width="7.02439" stroke-miterlimit="10"/>
<path d="M935.806 971.067H745.438V1095.81H935.806V971.067Z" stroke="white" stroke-width="7.02439" stroke-miterlimit="10"/>
<path d="M905.742 1003.19H855.645V1095.81H905.742V1003.19Z" stroke="white" stroke-width="7.02439" stroke-miterlimit="10"/>
<path d="M840.619 1003.19H768.812V1042.57H840.619V1003.19Z" stroke="white" stroke-width="7.02439" stroke-miterlimit="10"/>
<path d="M840.619 1050.64H768.812V1064.93H840.619V1050.64Z" stroke="white" stroke-width="7.02439" stroke-miterlimit="10"/>
<path d="M954.172 953.383H727.066V971.063H954.172V953.383Z" stroke="white" stroke-width="7.02439" stroke-miterlimit="10"/>
<path d="M936.926 935.703H745.438V953.383H936.926V935.703Z" stroke="white" stroke-width="7.02439" stroke-miterlimit="10"/>
<path d="M2756.7 971.067H2566.33V1095.81H2756.7V971.067Z" stroke="white" stroke-width="7.02439" stroke-miterlimit="10"/>
<path d="M2726.64 1003.19H2676.54V1095.81H2726.64V1003.19Z" stroke="white" stroke-width="7.02439" stroke-miterlimit="10"/>
<path d="M2661.51 1003.19H2589.71V1042.57H2661.51V1003.19Z" stroke="white" stroke-width="7.02439" stroke-miterlimit="10"/>
<path d="M2661.51 1050.64H2589.71V1064.93H2661.51V1050.64Z" stroke="white" stroke-width="7.02439" stroke-miterlimit="10"/>
<path d="M2775.06 953.383H2547.96V971.063H2775.06V953.383Z" stroke="white" stroke-width="7.02439" stroke-miterlimit="10"/>
<path d="M2757.82 935.703H2566.33V953.383H2757.82V935.703Z" stroke="white" stroke-width="7.02439" stroke-miterlimit="10"/>
<path d="M474.228 585.484H317.289V935.702H474.228V585.484Z" stroke="white" stroke-width="7.02439" stroke-miterlimit="10"/>
<path d="M334.906 610.582H456.625" stroke="white" stroke-width="7.02439" stroke-miterlimit="10"/>
<path d="M334.906 626.373H456.625" stroke="white" stroke-width="7.02439" stroke-miterlimit="10"/>
<path d="M334.906 642.163H456.625" stroke="white" stroke-width="7.02439" stroke-miterlimit="10"/>
<path d="M334.906 657.954H456.625" stroke="white" stroke-width="7.02439" stroke-miterlimit="10"/>
<path d="M334.906 673.745H456.625" stroke="white" stroke-width="7.02439" stroke-miterlimit="10"/>
<path d="M334.906 689.536H456.625" stroke="white" stroke-width="7.02439" stroke-miterlimit="10"/>
<path d="M334.906 705.327H456.625" stroke="white" stroke-width="7.02439" stroke-miterlimit="10"/>
<path d="M334.906 721.117H456.625" stroke="white" stroke-width="7.02439" stroke-miterlimit="10"/>
<path d="M334.906 736.908H456.625" stroke="white" stroke-width="7.02439" stroke-miterlimit="10"/>
<path d="M334.906 752.695H456.625" stroke="white" stroke-width="7.02439" stroke-miterlimit="10"/>
<path d="M334.906 768.486H456.625" stroke="white" stroke-width="7.02439" stroke-miterlimit="10"/>
<path d="M334.906 784.277H456.625" stroke="white" stroke-width="7.02439" stroke-miterlimit="10"/>
<path d="M334.906 800.068H456.625" stroke="white" stroke-width="7.02439" stroke-miterlimit="10"/>
<path d="M334.906 815.859H456.625" stroke="white" stroke-width="7.02439" stroke-miterlimit="10"/>
<path d="M334.906 831.65H456.625" stroke="white" stroke-width="7.02439" stroke-miterlimit="10"/>
<path d="M334.906 847.44H456.625" stroke="white" stroke-width="7.02439" stroke-miterlimit="10"/>
<path d="M334.906 863.232H456.625" stroke="white" stroke-width="7.02439" stroke-miterlimit="10"/>
<path d="M334.906 879.022H456.625" stroke="white" stroke-width="7.02439" stroke-miterlimit="10"/>
<path d="M334.906 894.813H456.625" stroke="white" stroke-width="7.02439" stroke-miterlimit="10"/>
<path d="M334.906 910.604H456.625" stroke="white" stroke-width="7.02439" stroke-miterlimit="10"/>
<path d="M437.575 541.177H353.949V585.484H437.575V541.177Z" stroke="white" stroke-width="7.02439" stroke-miterlimit="10"/>
<path d="M490.95 971.067H300.582V1095.81H490.95V971.067Z" stroke="white" stroke-width="7.02439" stroke-miterlimit="10"/>
<path d="M460.887 1003.19H410.789V1095.81H460.887V1003.19Z" stroke="white" stroke-width="7.02439" stroke-miterlimit="10"/>
<path d="M395.768 1003.19H323.961V1042.57H395.768V1003.19Z" stroke="white" stroke-width="7.02439" stroke-miterlimit="10"/>
<path d="M395.768 1050.64H323.961V1064.93H395.768V1050.64Z" stroke="white" stroke-width="7.02439" stroke-miterlimit="10"/>
<path d="M509.317 953.383H282.211V971.063H509.317V953.383Z" stroke="white" stroke-width="7.02439" stroke-miterlimit="10"/>
<path d="M492.07 935.703H300.582V953.383H492.07V935.703Z" stroke="white" stroke-width="7.02439" stroke-miterlimit="10"/>
<path d="M2483.08 585.484H2326.14V935.702H2483.08V585.484Z" stroke="white" stroke-width="7.02439" stroke-miterlimit="10"/>
<path d="M2343.76 610.582H2465.48" stroke="white" stroke-width="7.02439" stroke-miterlimit="10"/>
<path d="M2343.76 626.373H2465.48" stroke="white" stroke-width="7.02439" stroke-miterlimit="10"/>
<path d="M2343.76 642.163H2465.48" stroke="white" stroke-width="7.02439" stroke-miterlimit="10"/>
<path d="M2343.76 657.954H2465.48" stroke="white" stroke-width="7.02439" stroke-miterlimit="10"/>
<path d="M2343.76 673.745H2465.48" stroke="white" stroke-width="7.02439" stroke-miterlimit="10"/>
<path d="M2343.76 689.536H2465.48" stroke="white" stroke-width="7.02439" stroke-miterlimit="10"/>
<path d="M2343.76 705.327H2465.48" stroke="white" stroke-width="7.02439" stroke-miterlimit="10"/>
<path d="M2343.76 721.117H2465.48" stroke="white" stroke-width="7.02439" stroke-miterlimit="10"/>
<path d="M2343.76 736.908H2465.48" stroke="white" stroke-width="7.02439" stroke-miterlimit="10"/>
<path d="M2343.76 752.695H2465.48" stroke="white" stroke-width="7.02439" stroke-miterlimit="10"/>
<path d="M2343.76 768.486H2465.48" stroke="white" stroke-width="7.02439" stroke-miterlimit="10"/>
<path d="M2343.76 784.277H2465.48" stroke="white" stroke-width="7.02439" stroke-miterlimit="10"/>
<path d="M2343.76 800.068H2465.48" stroke="white" stroke-width="7.02439" stroke-miterlimit="10"/>
<path d="M2343.76 815.859H2465.48" stroke="white" stroke-width="7.02439" stroke-miterlimit="10"/>
<path d="M2343.76 831.65H2465.48" stroke="white" stroke-width="7.02439" stroke-miterlimit="10"/>
<path d="M2343.76 847.44H2465.48" stroke="white" stroke-width="7.02439" stroke-miterlimit="10"/>
<path d="M2343.76 863.232H2465.48" stroke="white" stroke-width="7.02439" stroke-miterlimit="10"/>
<path d="M2343.76 879.022H2465.48" stroke="white" stroke-width="7.02439" stroke-miterlimit="10"/>
<path d="M2343.76 894.813H2465.48" stroke="white" stroke-width="7.02439" stroke-miterlimit="10"/>
<path d="M2343.76 910.604H2465.48" stroke="white" stroke-width="7.02439" stroke-miterlimit="10"/>
<path d="M2446.43 541.177H2362.8V585.484H2446.43V541.177Z" stroke="white" stroke-width="7.02439" stroke-miterlimit="10"/>
<path d="M2499.8 971.067H2309.43V1095.81H2499.8V971.067Z" stroke="white" stroke-width="7.02439" stroke-miterlimit="10"/>
<path d="M2469.74 1003.19H2419.64V1095.81H2469.74V1003.19Z" stroke="white" stroke-width="7.02439" stroke-miterlimit="10"/>
<path d="M2404.62 1003.19H2332.81V1042.57H2404.62V1003.19Z" stroke="white" stroke-width="7.02439" stroke-miterlimit="10"/>
<path d="M2404.62 1050.64H2332.81V1064.93H2404.62V1050.64Z" stroke="white" stroke-width="7.02439" stroke-miterlimit="10"/>
<path d="M2518.17 953.383H2291.06V971.063H2518.17V953.383Z" stroke="white" stroke-width="7.02439" stroke-miterlimit="10"/>
<path d="M2500.92 935.703H2309.43V953.383H2500.92V935.703Z" stroke="white" stroke-width="7.02439" stroke-miterlimit="10"/>
<path d="M688.678 841.6H535.789V1095.81H688.678V841.6Z" stroke="white" stroke-width="7.02439" stroke-miterlimit="10"/>
<path d="M688.678 754.733H535.789V841.603H688.678V754.733Z" stroke="white" stroke-width="7.02439" stroke-miterlimit="10"/>
<path d="M583.101 769.221H556.012V827.112H583.101V769.221Z" stroke="white" stroke-width="7.02439" stroke-miterlimit="10"/>
<path d="M556.012 807.444H583.105" stroke="white" stroke-width="7.02439" stroke-miterlimit="10"/>
<path d="M625.781 769.221H598.691V827.112H625.781V769.221Z" stroke="white" stroke-width="7.02439" stroke-miterlimit="10"/>
<path d="M598.691 807.444H625.781" stroke="white" stroke-width="7.02439" stroke-miterlimit="10"/>
<path d="M668.449 769.221H641.359V827.112H668.449V769.221Z" stroke="white" stroke-width="7.02439" stroke-miterlimit="10"/>
<path d="M641.359 807.444H668.449" stroke="white" stroke-width="7.02439" stroke-miterlimit="10"/>
<path d="M561.512 863.502H688.671" stroke="white" stroke-width="7.02439" stroke-miterlimit="10"/>
<path d="M561.512 877.853H688.671" stroke="white" stroke-width="7.02439" stroke-miterlimit="10"/>
<path d="M561.512 892.2H688.671" stroke="white" stroke-width="7.02439" stroke-miterlimit="10"/>
<path d="M561.512 906.551H688.671" stroke="white" stroke-width="7.02439" stroke-miterlimit="10"/>
<path d="M561.512 920.898H688.671" stroke="white" stroke-width="7.02439" stroke-miterlimit="10"/>
<path d="M561.512 935.249H688.671" stroke="white" stroke-width="7.02439" stroke-miterlimit="10"/>
<path d="M561.512 949.596H688.671" stroke="white" stroke-width="7.02439" stroke-miterlimit="10"/>
<path d="M561.512 963.943H688.671" stroke="white" stroke-width="7.02439" stroke-miterlimit="10"/>
<path d="M561.512 978.295H688.671" stroke="white" stroke-width="7.02439" stroke-miterlimit="10"/>
<path d="M561.512 992.642H688.671" stroke="white" stroke-width="7.02439" stroke-miterlimit="10"/>
<path d="M561.512 1006.99H688.671" stroke="white" stroke-width="7.02439" stroke-miterlimit="10"/>
<path d="M598.681 1022.88H561.512V1095.81H598.681V1022.88Z" stroke="white" stroke-width="7.02439" stroke-miterlimit="10"/>
<path d="M668.451 1022.88H609.941V1054.97H668.451V1022.88Z" stroke="white" stroke-width="7.02439" stroke-miterlimit="10"/>
<path d="M668.451 1061.54H609.941V1073.18H668.451V1061.54Z" stroke="white" stroke-width="7.02439" stroke-miterlimit="10"/>
<path d="M2263.48 841.6H2110.59V1095.81H2263.48V841.6Z" stroke="white" stroke-width="7.02439" stroke-miterlimit="10"/>
<path d="M2263.48 754.733H2110.59V841.603H2263.48V754.733Z" stroke="white" stroke-width="7.02439" stroke-miterlimit="10"/>
<path d="M2157.91 769.221H2130.82V827.112H2157.91V769.221Z" stroke="white" stroke-width="7.02439" stroke-miterlimit="10"/>
<path d="M2130.82 807.444H2157.91" stroke="white" stroke-width="7.02439" stroke-miterlimit="10"/>
<path d="M2200.59 769.221H2173.5V827.112H2200.59V769.221Z" stroke="white" stroke-width="7.02439" stroke-miterlimit="10"/>
<path d="M2173.5 807.444H2200.59" stroke="white" stroke-width="7.02439" stroke-miterlimit="10"/>
<path d="M2243.26 769.221H2216.17V827.112H2243.26V769.221Z" stroke="white" stroke-width="7.02439" stroke-miterlimit="10"/>
<path d="M2216.17 807.444H2243.26" stroke="white" stroke-width="7.02439" stroke-miterlimit="10"/>
<path d="M2136.32 863.502H2263.48" stroke="white" stroke-width="7.02439" stroke-miterlimit="10"/>
<path d="M2136.32 877.853H2263.48" stroke="white" stroke-width="7.02439" stroke-miterlimit="10"/>
<path d="M2136.32 892.2H2263.48" stroke="white" stroke-width="7.02439" stroke-miterlimit="10"/>
<path d="M2136.32 906.551H2263.48" stroke="white" stroke-width="7.02439" stroke-miterlimit="10"/>
<path d="M2136.32 920.898H2263.48" stroke="white" stroke-width="7.02439" stroke-miterlimit="10"/>
<path d="M2136.32 935.249H2263.48" stroke="white" stroke-width="7.02439" stroke-miterlimit="10"/>
<path d="M2136.32 949.596H2263.48" stroke="white" stroke-width="7.02439" stroke-miterlimit="10"/>
<path d="M2136.32 963.943H2263.48" stroke="white" stroke-width="7.02439" stroke-miterlimit="10"/>
<path d="M2136.32 978.295H2263.48" stroke="white" stroke-width="7.02439" stroke-miterlimit="10"/>
<path d="M2136.32 992.642H2263.48" stroke="white" stroke-width="7.02439" stroke-miterlimit="10"/>
<path d="M2136.32 1006.99H2263.48" stroke="white" stroke-width="7.02439" stroke-miterlimit="10"/>
<path d="M2173.49 1022.88H2136.32V1095.81H2173.49V1022.88Z" stroke="white" stroke-width="7.02439" stroke-miterlimit="10"/>
<path d="M2243.26 1022.88H2184.75V1054.97H2243.26V1022.88Z" stroke="white" stroke-width="7.02439" stroke-miterlimit="10"/>
<path d="M2243.26 1061.54H2184.75V1073.18H2243.26V1061.54Z" stroke="white" stroke-width="7.02439" stroke-miterlimit="10"/>
</g>
<path d="M2262.52 434.765H2170.32L2205.86 399.221L2189.77 383.135L2126.77 446.137L2189.77 509.142L2205.86 493.056L2170.32 457.513H2262.51L2262.52 434.765Z" fill="white"/>
<path d="M753.231 434.765H661.036L696.579 399.221L680.494 383.135L617.488 446.137L680.494 509.142L696.579 493.056L661.036 457.513H753.231V434.765Z" fill="white"/>
<path d="M2880 957.028H0" stroke="#9CC6DD" stroke-width="10.5366" stroke-miterlimit="10"/>
<path d="M91.8242 957.024C91.8242 964.267 97.6966 970.139 104.939 970.139C112.181 970.139 118.053 964.267 118.053 957.024C118.053 949.782 112.181 943.91 104.939 943.91C97.6966 943.91 91.8242 949.782 91.8242 957.024Z" fill="white" stroke="#9CC6DD" stroke-width="10.5366" stroke-miterlimit="10"/>
<path d="M1468.81 957.024C1468.81 964.267 1474.68 970.139 1481.92 970.139C1489.17 970.139 1495.04 964.267 1495.04 957.024C1495.04 949.782 1489.17 943.91 1481.92 943.91C1474.68 943.91 1468.81 949.782 1468.81 957.024Z" fill="white" stroke="#9CC6DD" stroke-width="10.5366" stroke-miterlimit="10"/>
<path d="M2753.23 957.024C2753.23 964.267 2759.1 970.139 2766.34 970.139C2773.59 970.139 2779.46 964.267 2779.46 957.024C2779.46 949.782 2773.59 943.91 2766.34 943.91C2759.1 943.91 2753.23 949.782 2753.23 957.024Z" fill="white" stroke="#9CC6DD" stroke-width="10.5366" stroke-miterlimit="10"/>
<path d="M2880 446.136H2407.36" stroke="#9CC6DD" stroke-width="10.5366" stroke-miterlimit="10"/>
<path d="M2394.24 446.137C2394.24 453.379 2400.11 459.251 2407.36 459.251C2414.6 459.251 2420.47 453.379 2420.47 446.137C2420.47 438.894 2414.6 433.022 2407.36 433.022C2400.11 433.022 2394.24 438.894 2394.24 446.137Z" fill="white" stroke="#9CC6DD" stroke-width="10.5366" stroke-miterlimit="10"/>
<path d="M0 446.136H472.64" stroke="#9CC6DD" stroke-width="10.5366" stroke-miterlimit="10"/>
<path d="M485.749 446.137C485.749 438.894 479.876 433.022 472.634 433.022C465.392 433.022 459.52 438.894 459.52 446.137C459.52 453.379 465.392 459.251 472.634 459.251C479.876 459.251 485.749 453.382 485.749 446.137Z" fill="white" stroke="#9CC6DD" stroke-width="10.5366" stroke-miterlimit="10"/>
<path d="M239.902 329.718L275.179 294.47L239.902 259.218L256.627 242.51L308.625 294.47L256.627 346.432L239.902 329.718Z" fill="white"/>
<path d="M304.793 329.718L340.069 294.47L304.793 259.218L321.515 242.51L373.516 294.47L321.515 346.432L304.793 329.718Z" fill="white"/>
<path d="M175.004 329.718L210.28 294.47L175.004 259.218L191.725 242.51L243.727 294.47L191.725 346.432L175.004 329.718Z" fill="white"/>
<path d="M110.113 329.718L145.39 294.47L110.113 259.218L126.838 242.51L178.836 294.47L126.838 346.432L110.113 329.718Z" fill="white"/>
<path d="M2640.12 259.225L2604.84 294.47L2640.12 329.722L2623.39 346.433L2571.39 294.47L2623.39 242.51L2640.12 259.225Z" fill="white"/>
<path d="M2575.22 259.225L2539.95 294.47L2575.22 329.722L2558.5 346.433L2506.5 294.47L2558.5 242.51L2575.22 259.225Z" fill="white"/>
<path d="M2705.01 259.225L2669.73 294.47L2705.01 329.722L2688.29 346.433L2636.29 294.47L2688.29 242.51L2705.01 259.225Z" fill="white"/>
<path d="M2769.9 259.225L2734.63 294.47L2769.9 329.722L2753.18 346.433L2701.18 294.47L2753.18 242.51L2769.9 259.225Z" fill="white"/>
<path d="M1137.05 413.163L1107.11 528.01H1073.25L1054.92 452.427L1035.95 528.01H1002.08L972.961 413.163H1002.9L1019.42 496.762L1039.87 413.163H1070.63L1090.26 496.762L1106.95 413.163H1137.05ZM1237.13 480.893C1237.13 483.511 1236.97 486.237 1236.64 489.073H1173.33C1173.77 494.745 1175.57 499.107 1178.73 502.161C1182 505.106 1185.98 506.578 1190.67 506.578C1197.65 506.578 1202.51 503.633 1205.23 497.744H1235.01C1233.48 503.743 1230.7 509.141 1226.66 513.94C1222.74 518.739 1217.78 522.502 1211.78 525.229C1205.78 527.955 1199.07 529.319 1191.65 529.319C1182.71 529.319 1174.75 527.41 1167.77 523.593C1160.79 519.775 1155.33 514.322 1151.41 507.233C1147.48 500.143 1145.52 491.854 1145.52 482.366C1145.52 472.877 1147.43 464.588 1151.24 457.498C1155.17 450.409 1160.62 444.956 1167.6 441.138C1174.59 437.321 1182.6 435.412 1191.65 435.412C1200.49 435.412 1208.34 437.267 1215.21 440.975C1222.08 444.683 1227.43 449.973 1231.25 456.844C1235.17 463.715 1237.13 471.732 1237.13 480.893ZM1208.5 473.531C1208.5 468.732 1206.87 464.915 1203.6 462.079C1200.32 459.243 1196.23 457.826 1191.33 457.826C1186.64 457.826 1182.66 459.189 1179.38 461.916C1176.22 464.642 1174.26 468.514 1173.49 473.531H1208.5ZM1337.44 504.288V528.01H1323.21C1313.07 528.01 1305.16 525.556 1299.49 520.648C1293.81 515.631 1290.98 507.505 1290.98 496.271V459.952H1279.85V436.721H1290.98V414.472H1318.95V436.721H1337.28V459.952H1318.95V496.599C1318.95 499.325 1319.61 501.289 1320.92 502.488C1322.23 503.688 1324.41 504.288 1327.46 504.288H1337.44ZM1347.46 482.202C1347.46 472.822 1349.21 464.588 1352.7 457.498C1356.3 450.409 1361.15 444.956 1367.26 441.138C1373.37 437.321 1380.18 435.412 1387.71 435.412C1394.14 435.412 1399.76 436.721 1404.56 439.339C1409.47 441.956 1413.23 445.392 1415.85 449.646V436.721H1443.82V528.01H1415.85V515.085C1413.12 519.339 1409.3 522.775 1404.39 525.392C1399.6 528.01 1393.98 529.319 1387.54 529.319C1380.13 529.319 1373.37 527.41 1367.26 523.593C1361.15 519.666 1356.3 514.158 1352.7 507.069C1349.21 499.871 1347.46 491.582 1347.46 482.202ZM1415.85 482.366C1415.85 475.385 1413.88 469.877 1409.96 465.842C1406.14 461.807 1401.45 459.789 1395.89 459.789C1390.33 459.789 1385.58 461.807 1381.65 465.842C1377.84 469.768 1375.93 475.222 1375.93 482.202C1375.93 489.182 1377.84 494.745 1381.65 498.889C1385.58 502.925 1390.33 504.942 1395.89 504.942C1401.45 504.942 1406.14 502.925 1409.96 498.889C1413.88 494.854 1415.85 489.346 1415.85 482.366ZM1519.85 528.01L1492.04 489.727V528.01H1464.06V406.946H1492.04V473.858L1519.68 436.721H1554.2L1516.25 482.529L1554.53 528.01H1519.85ZM1651.25 480.893C1651.25 483.511 1651.08 486.237 1650.75 489.073H1587.44C1587.88 494.745 1589.68 499.107 1592.84 502.161C1596.11 505.106 1600.09 506.578 1604.78 506.578C1611.76 506.578 1616.62 503.633 1619.34 497.744H1649.12C1647.59 503.743 1644.81 509.141 1640.78 513.94C1636.85 518.739 1631.89 522.502 1625.89 525.229C1619.89 527.955 1613.18 529.319 1605.77 529.319C1596.82 529.319 1588.86 527.41 1581.88 523.593C1574.9 519.775 1569.45 514.322 1565.52 507.233C1561.59 500.143 1559.63 491.854 1559.63 482.366C1559.63 472.877 1561.54 464.588 1565.36 457.498C1569.28 450.409 1574.74 444.956 1581.72 441.138C1588.7 437.321 1596.71 435.412 1605.77 435.412C1614.6 435.412 1622.45 437.267 1629.32 440.975C1636.19 444.683 1641.54 449.973 1645.36 456.844C1649.28 463.715 1651.25 471.732 1651.25 480.893ZM1622.62 473.531C1622.62 468.732 1620.98 464.915 1617.71 462.079C1614.44 459.243 1610.35 457.826 1605.44 457.826C1600.75 457.826 1596.77 459.189 1593.5 461.916C1590.33 464.642 1588.37 468.514 1587.61 473.531H1622.62ZM1793.92 436.721L1736.67 571.364H1706.56L1727.5 524.901L1690.37 436.721H1721.61L1742.72 493.817L1763.66 436.721H1793.92ZM1845.6 529.319C1836.65 529.319 1828.58 527.41 1821.38 523.593C1814.29 519.775 1808.68 514.322 1804.53 507.233C1800.5 500.143 1798.48 491.854 1798.48 482.366C1798.48 472.986 1800.55 464.751 1804.7 457.662C1808.84 450.464 1814.51 444.956 1821.71 441.138C1828.91 437.321 1836.98 435.412 1845.92 435.412C1854.87 435.412 1862.94 437.321 1870.14 441.138C1877.33 444.956 1883.01 450.464 1887.15 457.662C1891.29 464.751 1893.37 472.986 1893.37 482.366C1893.37 491.745 1891.24 500.034 1886.99 507.233C1882.84 514.322 1877.12 519.775 1869.81 523.593C1862.61 527.41 1854.54 529.319 1845.6 529.319ZM1845.6 505.106C1850.94 505.106 1855.47 503.143 1859.17 499.216C1862.99 495.29 1864.9 489.673 1864.9 482.366C1864.9 475.058 1863.05 469.441 1859.34 465.515C1855.74 461.588 1851.27 459.625 1845.92 459.625C1840.47 459.625 1835.94 461.588 1832.34 465.515C1828.74 469.332 1826.95 474.949 1826.95 482.366C1826.95 489.673 1828.69 495.29 1832.18 499.216C1835.78 503.143 1840.25 505.106 1845.6 505.106ZM1998.35 436.721V528.01H1970.38V515.576C1967.54 519.612 1963.67 522.884 1958.76 525.392C1953.96 527.792 1948.62 528.991 1942.73 528.991C1935.75 528.991 1929.59 527.464 1924.24 524.411C1918.9 521.248 1914.75 516.721 1911.81 510.832C1908.86 504.942 1907.39 498.017 1907.39 490.055V436.721H1935.2V486.292C1935.2 492.4 1936.78 497.144 1939.95 500.525C1943.11 503.906 1947.36 505.597 1952.71 505.597C1958.16 505.597 1962.47 503.906 1965.63 500.525C1968.79 497.144 1970.38 492.4 1970.38 486.292V436.721H1998.35Z" fill="white"/>
<path d="M693.939 622.853V646.084H731.403V667.679H693.939V692.873H736.311V715.286H665.963V600.44H736.311V622.853H693.939ZM795.537 689.11L815.332 623.998H845.107L812.715 715.286H778.195L745.803 623.998H775.741L795.537 689.11ZM942.936 668.17C942.936 670.787 942.772 673.514 942.445 676.35H879.132C879.569 682.021 881.368 686.384 884.531 689.438C887.803 692.382 891.784 693.855 896.474 693.855C903.454 693.855 908.308 690.91 911.034 685.02H940.809C939.282 691.019 936.501 696.418 932.466 701.217C928.539 706.016 923.577 709.779 917.578 712.505C911.58 715.232 904.872 716.595 897.455 716.595C888.512 716.595 880.55 714.687 873.57 710.869C866.59 707.052 861.136 701.599 857.21 694.509C853.284 687.42 851.32 679.131 851.32 669.642C851.32 660.153 853.229 651.864 857.046 644.775C860.973 637.686 866.426 632.232 873.406 628.415C880.387 624.598 888.403 622.689 897.455 622.689C906.29 622.689 914.143 624.543 921.014 628.251C927.885 631.96 933.229 637.249 937.047 644.121C940.973 650.992 942.936 659.008 942.936 668.17ZM914.306 660.808C914.306 656.009 912.67 652.192 909.398 649.356C906.126 646.52 902.036 645.102 897.128 645.102C892.438 645.102 888.457 646.466 885.185 649.192C882.023 651.919 880.059 655.791 879.296 660.808H914.306ZM985.67 639.213C988.942 634.196 993.032 630.269 997.94 627.433C1002.85 624.489 1008.3 623.016 1014.3 623.016V652.628H1006.61C999.631 652.628 994.395 654.155 990.905 657.209C987.415 660.153 985.67 665.389 985.67 672.914V715.286H957.695V623.998H985.67V639.213ZM1120.92 623.998L1063.66 758.64H1033.56L1054.5 712.178L1017.36 623.998H1048.61L1069.72 681.094L1090.66 623.998H1120.92ZM1262.08 623.998L1237.38 715.286H1206.46L1192.06 656.063L1177.17 715.286H1146.42L1121.55 623.998H1149.53L1162.45 689.274L1177.83 623.998H1207.44L1222.98 688.947L1235.74 623.998H1262.08ZM1328.87 623.016C1339.34 623.016 1347.73 626.506 1354.06 633.487C1360.39 640.358 1363.55 649.847 1363.55 661.953V715.286H1335.74V665.716C1335.74 659.608 1334.16 654.864 1330.99 651.483C1327.83 648.102 1323.58 646.411 1318.23 646.411C1312.89 646.411 1308.63 648.102 1305.47 651.483C1302.31 654.864 1300.73 659.608 1300.73 665.716V715.286H1272.75V594.223H1300.73V636.268C1303.56 632.232 1307.43 629.015 1312.34 626.615C1317.25 624.216 1322.76 623.016 1328.87 623.016ZM1469.04 668.17C1469.04 670.787 1468.88 673.514 1468.55 676.35H1405.24C1405.68 682.021 1407.47 686.384 1410.64 689.438C1413.91 692.382 1417.89 693.855 1422.58 693.855C1429.56 693.855 1434.41 690.91 1437.14 685.02H1466.92C1465.39 691.019 1462.61 696.418 1458.57 701.217C1454.65 706.016 1449.68 709.779 1443.68 712.505C1437.69 715.232 1430.98 716.595 1423.56 716.595C1414.62 716.595 1406.66 714.687 1399.68 710.869C1392.7 707.052 1387.24 701.599 1383.32 694.509C1379.39 687.42 1377.43 679.131 1377.43 669.642C1377.43 660.153 1379.34 651.864 1383.15 644.775C1387.08 637.686 1392.53 632.232 1399.51 628.415C1406.49 624.598 1414.51 622.689 1423.56 622.689C1432.4 622.689 1440.25 624.543 1447.12 628.251C1453.99 631.96 1459.34 637.249 1463.15 644.121C1467.08 650.992 1469.04 659.008 1469.04 668.17ZM1440.41 660.808C1440.41 656.009 1438.78 652.192 1435.5 649.356C1432.23 646.52 1428.14 645.102 1423.23 645.102C1418.54 645.102 1414.56 646.466 1411.29 649.192C1408.13 651.919 1406.17 655.791 1405.4 660.808H1440.41ZM1511.78 639.213C1515.05 634.196 1519.14 630.269 1524.05 627.433C1528.95 624.489 1534.41 623.016 1540.41 623.016V652.628H1532.72C1525.74 652.628 1520.5 654.155 1517.01 657.209C1513.52 660.153 1511.78 665.389 1511.78 672.914V715.286H1483.8V623.998H1511.78V639.213ZM1639.83 668.17C1639.83 670.787 1639.67 673.514 1639.34 676.35H1576.03C1576.46 682.021 1578.26 686.384 1581.43 689.438C1584.7 692.382 1588.68 693.855 1593.37 693.855C1600.35 693.855 1605.2 690.91 1607.93 685.02H1637.7C1636.18 691.019 1633.4 696.418 1629.36 701.217C1625.43 706.016 1620.47 709.779 1614.47 712.505C1608.47 715.232 1601.77 716.595 1594.35 716.595C1585.41 716.595 1577.45 714.687 1570.47 710.869C1563.49 707.052 1558.03 701.599 1554.11 694.509C1550.18 687.42 1548.22 679.131 1548.22 669.642C1548.22 660.153 1550.12 651.864 1553.94 644.775C1557.87 637.686 1563.32 632.232 1570.3 628.415C1577.28 624.598 1585.3 622.689 1594.35 622.689C1603.19 622.689 1611.04 624.543 1617.91 628.251C1624.78 631.96 1630.12 637.249 1633.94 644.121C1637.87 650.992 1639.83 659.008 1639.83 668.17ZM1611.2 660.808C1611.2 656.009 1609.57 652.192 1606.29 649.356C1603.02 646.52 1598.93 645.102 1594.02 645.102C1589.33 645.102 1585.35 646.466 1582.08 649.192C1578.92 651.919 1576.95 655.791 1576.19 660.808H1611.2ZM1730.81 716.595C1721.87 716.595 1713.8 714.687 1706.6 710.869C1699.51 707.052 1693.89 701.599 1689.75 694.509C1685.71 687.42 1683.7 679.131 1683.7 669.642C1683.7 660.262 1685.77 652.028 1689.91 644.939C1694.06 637.74 1699.73 632.232 1706.93 628.415C1714.13 624.598 1722.2 622.689 1731.14 622.689C1740.08 622.689 1748.15 624.598 1755.35 628.415C1762.55 632.232 1768.22 637.74 1772.37 644.939C1776.51 652.028 1778.58 660.262 1778.58 669.642C1778.58 679.022 1776.46 687.311 1772.2 694.509C1768.06 701.599 1762.33 707.052 1755.03 710.869C1747.83 714.687 1739.76 716.595 1730.81 716.595ZM1730.81 692.382C1736.16 692.382 1740.68 690.419 1744.39 686.493C1748.21 682.566 1750.12 676.95 1750.12 669.642C1750.12 662.335 1748.26 656.718 1744.56 652.791C1740.96 648.865 1736.48 646.902 1731.14 646.902C1725.69 646.902 1721.16 648.865 1717.56 652.791C1713.96 656.609 1712.16 662.226 1712.16 669.642C1712.16 676.95 1713.91 682.566 1717.4 686.493C1721 690.419 1725.47 692.382 1730.81 692.382ZM1849.05 623.016C1859.74 623.016 1868.25 626.506 1874.57 633.487C1881.01 640.358 1884.22 649.847 1884.22 661.953V715.286H1856.41V665.716C1856.41 659.608 1854.83 654.864 1851.67 651.483C1848.5 648.102 1844.25 646.411 1838.91 646.411C1833.56 646.411 1829.31 648.102 1826.15 651.483C1822.98 654.864 1821.4 659.608 1821.4 665.716V715.286H1793.43V623.998H1821.4V636.104C1824.24 632.069 1828.05 628.906 1832.85 626.615C1837.65 624.216 1843.05 623.016 1849.05 623.016ZM2020.95 600.44V622.853H1990.52V715.286H1962.55V622.853H1932.12V600.44H2020.95ZM2049.06 614.509C2044.15 614.509 2040.12 613.091 2036.95 610.256C2033.9 607.311 2032.37 603.712 2032.37 599.458C2032.37 595.095 2033.9 591.496 2036.95 588.66C2040.12 585.716 2044.15 584.243 2049.06 584.243C2053.86 584.243 2057.79 585.716 2060.84 588.66C2064 591.496 2065.58 595.095 2065.58 599.458C2065.58 603.712 2064 607.311 2060.84 610.256C2057.79 613.091 2053.86 614.509 2049.06 614.509ZM2062.97 623.998V715.286H2034.99V623.998H2062.97ZM2199.72 623.016C2211.07 623.016 2220.06 626.452 2226.72 633.323C2233.48 640.194 2236.86 649.738 2236.86 661.953V715.286H2209.05V665.716C2209.05 659.826 2207.47 655.3 2204.3 652.137C2201.25 648.865 2197 647.229 2191.54 647.229C2186.09 647.229 2181.78 648.865 2178.62 652.137C2175.56 655.3 2174.04 659.826 2174.04 665.716V715.286H2146.23V665.716C2146.23 659.826 2144.64 655.3 2141.48 652.137C2138.43 648.865 2134.17 647.229 2128.72 647.229C2123.27 647.229 2118.96 648.865 2115.8 652.137C2112.74 655.3 2111.22 659.826 2111.22 665.716V715.286H2083.24V623.998H2111.22V635.45C2114.05 631.633 2117.76 628.633 2122.34 626.452C2126.92 624.161 2132.1 623.016 2137.88 623.016C2144.75 623.016 2150.86 624.489 2156.2 627.433C2161.66 630.378 2165.91 634.577 2168.97 640.031C2172.13 635.014 2176.44 630.924 2181.89 627.761C2187.34 624.598 2193.29 623.016 2199.72 623.016ZM2342.48 668.17C2342.48 670.787 2342.31 673.514 2341.99 676.35H2278.67C2279.11 682.021 2280.91 686.384 2284.07 689.438C2287.35 692.382 2291.33 693.855 2296.02 693.855C2303 693.855 2307.85 690.91 2310.58 685.02H2340.35C2338.82 691.019 2336.04 696.418 2332.01 701.217C2328.08 706.016 2323.12 709.779 2317.12 712.505C2311.12 715.232 2304.41 716.595 2297 716.595C2288.05 716.595 2280.09 714.687 2273.11 710.869C2266.13 707.052 2260.68 701.599 2256.75 694.509C2252.83 687.42 2250.86 679.131 2250.86 669.642C2250.86 660.153 2252.77 651.864 2256.59 644.775C2260.52 637.686 2265.97 632.232 2272.95 628.415C2279.93 624.598 2287.95 622.689 2297 622.689C2305.83 622.689 2313.68 624.543 2320.56 628.251C2327.43 631.96 2332.77 637.249 2336.59 644.121C2340.52 650.992 2342.48 659.008 2342.48 668.17ZM2313.85 660.808C2313.85 656.009 2312.21 652.192 2308.94 649.356C2305.67 646.52 2301.58 645.102 2296.67 645.102C2291.98 645.102 2288 646.466 2284.73 649.192C2281.56 651.919 2279.6 655.791 2278.84 660.808H2313.85ZM2370.32 716.595C2365.42 716.595 2361.38 715.177 2358.22 712.342C2355.16 709.397 2353.64 705.798 2353.64 701.544C2353.64 697.181 2355.16 693.528 2358.22 690.583C2361.38 687.638 2365.42 686.166 2370.32 686.166C2375.12 686.166 2379.05 687.638 2382.1 690.583C2385.27 693.528 2386.85 697.181 2386.85 701.544C2386.85 705.798 2385.27 709.397 2382.1 712.342C2379.05 715.177 2375.12 716.595 2370.32 716.595Z" fill="#9CC6DD"/>
</g>
<defs>
<clipPath id="clip0_219_8">
<rect width="2880" height="1095.8" fill="white"/>
</clipPath>
</defs>
</svg>
