<svg width="128" height="128" viewBox="0 0 128 128" fill="none" xmlns="http://www.w3.org/2000/svg">
<g clip-path="url(#clip0_135_2)">
<path d="M57.1445 91.4287H70.8588V116.572H57.1445V91.4287Z" fill="#97A2AC"/>
<path d="M0 121.143H29.7143V125.714H0V121.143Z" fill="#97A2AC"/>
<path d="M34.2852 57.1426H93.7137V61.714H34.2852V57.1426Z" fill="#97A2AC"/>
<path d="M29.7152 57.1427C27.1905 57.1427 25.1438 55.096 25.1438 52.5713H9.68322C8.81678 52.5685 8.02419 53.0588 7.63979 53.8353L3.69922 61.7142H29.7152V57.1427Z" fill="#97A2AC"/>
<path d="M89.1412 116.572V66.2861H38.8555V116.572H52.5698V89.1433C52.5698 87.8809 53.5931 86.8576 54.8555 86.8576H73.1412C74.4035 86.8576 75.4269 87.8809 75.4269 89.1433V116.572H89.1412ZM59.4269 77.7147C59.4269 78.9771 58.4035 80.0004 57.1412 80.0004C55.8788 80.0004 54.8555 78.9771 54.8555 77.7147V73.1433C54.8555 71.8809 55.8788 70.8576 57.1412 70.8576C58.4035 70.8576 59.4269 71.8809 59.4269 73.1433V77.7147ZM73.1412 77.7147C73.1412 78.9771 72.1178 80.0004 70.8555 80.0004C69.5931 80.0004 68.5698 78.9771 68.5698 77.7147V73.1433C68.5698 71.8809 69.5931 70.8576 70.8555 70.8576C72.1178 70.8576 73.1412 71.8809 73.1412 73.1433V77.7147Z" fill="#97A2AC"/>
<path d="M86.5806 34.9558C86.1515 34.5266 85.5693 34.2857 84.9623 34.2861H40.9989C40.3206 34.2864 39.6775 34.5878 39.2435 35.109L32.3086 43.429H95.0537L86.5806 34.9558Z" fill="#97A2AC"/>
<path d="M93.7137 8.01829H93.7434L63.9994 0L34.2852 7.98171L64.0109 16L93.7137 8.01829Z" fill="#97A2AC"/>
<path d="M98.2852 61.7142H124.301L120.361 53.8353C119.976 53.0588 119.184 52.5685 118.317 52.5713H102.857C102.857 55.096 100.81 57.1427 98.2852 57.1427V61.7142Z" fill="#97A2AC"/>
<path d="M62.8257 20.4156L45.7148 15.8213V29.7139H82.2863V15.8213L65.1754 20.4156C64.4059 20.6228 63.5952 20.6228 62.8257 20.4156Z" fill="#97A2AC"/>
<path d="M29.7148 48H98.2863V52.5714H29.7148V48Z" fill="#97A2AC"/>
<path d="M34.2852 66.2861H2.28516V116.572H34.2852V66.2861ZM13.7137 107.429C13.7137 108.691 12.6904 109.715 11.428 109.715C10.1656 109.715 9.1423 108.691 9.1423 107.429V102.858C9.1423 101.595 10.1656 100.572 11.428 100.572C12.6904 100.572 13.7137 101.595 13.7137 102.858V107.429ZM13.7137 93.7147C13.7137 94.9771 12.6904 96.0004 11.428 96.0004C10.1656 96.0004 9.1423 94.9771 9.1423 93.7147V89.1433C9.1423 87.8809 10.1656 86.8576 11.428 86.8576C12.6904 86.8576 13.7137 87.8809 13.7137 89.1433V93.7147ZM13.7137 80.0004C13.7137 81.2628 12.6904 82.2861 11.428 82.2861C10.1656 82.2861 9.1423 81.2628 9.1423 80.0004V75.429C9.1423 74.1666 10.1656 73.1433 11.428 73.1433C12.6904 73.1433 13.7137 74.1666 13.7137 75.429V80.0004ZM27.428 107.429C27.428 108.691 26.4047 109.715 25.1423 109.715C23.8799 109.715 22.8566 108.691 22.8566 107.429V102.858C22.8566 101.595 23.8799 100.572 25.1423 100.572C26.4047 100.572 27.428 101.595 27.428 102.858V107.429ZM27.428 93.7147C27.428 94.9771 26.4047 96.0004 25.1423 96.0004C23.8799 96.0004 22.8566 94.9771 22.8566 93.7147V89.1433C22.8566 87.8809 23.8799 86.8576 25.1423 86.8576C26.4047 86.8576 27.428 87.8809 27.428 89.1433V93.7147ZM27.428 80.0004C27.428 81.2628 26.4047 82.2861 25.1423 82.2861C23.8799 82.2861 22.8566 81.2628 22.8566 80.0004V75.429C22.8566 74.1666 23.8799 73.1433 25.1423 73.1433C26.4047 73.1433 27.428 74.1666 27.428 75.429V80.0004Z" fill="#97A2AC"/>
<path d="M98.2852 121.143H127.999V125.714H98.2852V121.143Z" fill="#97A2AC"/>
<path d="M73.1423 121.143H54.8566H34.2852V128H93.716L93.7137 121.143H73.1423Z" fill="#97A2AC"/>
<path d="M125.715 66.2861H93.7148V116.572H125.715V66.2861ZM105.143 107.429C105.143 108.691 104.12 109.715 102.858 109.715C101.595 109.715 100.572 108.691 100.572 107.429V102.858C100.572 101.595 101.595 100.572 102.858 100.572C104.12 100.572 105.143 101.595 105.143 102.858V107.429ZM105.143 93.7147C105.143 94.9771 104.12 96.0004 102.858 96.0004C101.595 96.0004 100.572 94.9771 100.572 93.7147V89.1433C100.572 87.8809 101.595 86.8576 102.858 86.8576C104.12 86.8576 105.143 87.8809 105.143 89.1433V93.7147ZM105.143 80.0004C105.143 81.2628 104.12 82.2861 102.858 82.2861C101.595 82.2861 100.572 81.2628 100.572 80.0004V75.429C100.572 74.1666 101.595 73.1433 102.858 73.1433C104.12 73.1433 105.143 74.1666 105.143 75.429V80.0004ZM118.858 107.429C118.858 108.691 117.834 109.715 116.572 109.715C115.31 109.715 114.286 108.691 114.286 107.429V102.858C114.286 101.595 115.31 100.572 116.572 100.572C117.834 100.572 118.858 101.595 118.858 102.858V107.429ZM118.858 93.7147C118.858 94.9771 117.834 96.0004 116.572 96.0004C115.31 96.0004 114.286 94.9771 114.286 93.7147V89.1433C114.286 87.8809 115.31 86.8576 116.572 86.8576C117.834 86.8576 118.858 87.8809 118.858 89.1433V93.7147ZM118.858 80.0004C118.858 81.2628 117.834 82.2861 116.572 82.2861C115.31 82.2861 114.286 81.2628 114.286 80.0004V75.429C114.286 74.1666 115.31 73.1433 116.572 73.1433C117.834 73.1433 118.858 74.1666 118.858 75.429V80.0004Z" fill="#97A2AC"/>
<path d="M93.8917 12.6631H89.3203V21.1888V21.2048C89.3178 23.552 90.4908 25.7445 92.4449 27.0448C93.1243 27.498 93.9939 27.5543 94.7261 27.1926C95.4583 26.8308 95.9419 26.1058 95.9947 25.2908C96.0475 24.4758 95.6615 23.6946 94.982 23.2414C94.3001 22.7883 93.8907 22.0235 93.8917 21.2048V21.1888V12.6631Z" fill="#97A2AC"/>
</g>
<defs>
<clipPath id="clip0_135_2">
<rect width="128" height="128" fill="white"/>
</clipPath>
</defs>
</svg>
