<svg width="124" height="124" viewBox="0 0 124 124" fill="none" xmlns="http://www.w3.org/2000/svg">
<g clip-path="url(#clip0_21_391)">
<path d="M123.888 0.0927734H0.0742188V123.907H123.888V0.0927734Z" fill="white"/>
<path fill-rule="evenodd" clip-rule="evenodd" d="M93.4281 77.4395C104.122 78.2483 111.529 76.791 110.369 64.5008C108.727 47.0964 91.652 31.0051 73.9718 30.0327C63.65 29.4649 50.141 33.5635 42.6274 40.6943C33.066 49.7685 17.1794 61.6831 19.7846 76.4244C22.3672 91.0369 43.0404 95.6074 55.8524 92.6057C68.1308 89.7291 73.6423 84.9176 84.0758 80.0036C87.1631 78.5494 90.0144 77.6088 93.4281 77.4395Z" fill="#EFE7F6"/>
<path d="M111.874 97.2539H13.5391V100.23H111.874V97.2539Z" fill="#2C1711"/>
<path fill-rule="evenodd" clip-rule="evenodd" d="M69.5244 60.8784L76.8996 62.7157L75.7072 67.5022L68.332 65.665L69.5244 60.8784ZM75.5708 64.9265L75.9978 63.2125L70.0878 61.7401L69.6608 63.4542L69.183 65.372L75.093 66.8442L75.5708 64.9265Z" fill="#2C1711"/>
<path d="M64.7724 62.24L62.1445 72.7896L77.8224 76.6949L80.4503 66.1453L64.7724 62.24Z" fill="#9760C6"/>
<path fill-rule="evenodd" clip-rule="evenodd" d="M64.7734 62.2378L80.4521 66.1436L70.9951 70.684L64.7734 62.2378Z" fill="#C898E4"/>
<path d="M69.1527 68.8262L68.8242 70.145L73.156 71.2241L73.4845 69.9053L69.1527 68.8262Z" fill="#F9C86D"/>
<path fill-rule="evenodd" clip-rule="evenodd" d="M73.1271 56.5723L72.341 59.0048L70.9794 59.8682L70.5586 61.137L71.212 61.2998L71.2474 62.3498L74.4431 62.8904L75.2741 61.335L75.7022 59.4001L76.312 57.4324L73.1271 56.5723Z" fill="#FB8664"/>
<path fill-rule="evenodd" clip-rule="evenodd" d="M76.2755 58.7997L80.1427 49.9127L79.9432 37.7409L78.527 36.9077L76.3169 37.2276L75.4467 38.9744L75.1208 49.2972L72.2812 58.0171L76.2755 58.7997Z" fill="#F0A4B8"/>
<path fill-rule="evenodd" clip-rule="evenodd" d="M89.3249 56.978L89.5249 58.5586L90.4122 61.8376L91.5191 74.3241L95.1383 93.3512H88.8557L84.7629 75.6255L83.3999 66.1894L82.5627 65.7105L81.5272 74.9762L81.6849 93.3512H75.4658L75.0039 74.6416L76.5238 57.1539L89.3249 56.978Z" fill="#5236A3"/>
<path fill-rule="evenodd" clip-rule="evenodd" d="M83.3959 66.1898L82.5587 65.7109L81.9904 70.7961L80.1133 65.4149L80.7534 60.9341L82.1684 64.3705L83.3959 66.1898Z" fill="#2C1711"/>
<path fill-rule="evenodd" clip-rule="evenodd" d="M89.3227 56.978L89.5227 58.5586H76.4805L76.5215 57.1539L89.3227 56.978Z" fill="#2C1711"/>
<path fill-rule="evenodd" clip-rule="evenodd" d="M75.4023 49.29C75.54 49.29 76.7858 50.0534 76.9036 50.0534C77.0215 50.0534 78.2166 49.4247 78.2166 49.4247L76.8081 49.328L75.4023 49.29Z" fill="#2C1711"/>
<path fill-rule="evenodd" clip-rule="evenodd" d="M90.2068 37.3231L88.8485 35.8496L82.5652 34.8965L77.7514 36.1293L76.3157 37.2278L76.6 49.6095L75.8906 53.9889L76.5218 57.1539L89.323 56.978L90.2068 37.3231Z" fill="#FBB4C2"/>
<path fill-rule="evenodd" clip-rule="evenodd" d="M89.7258 47.9721L89.9897 42.1039L86.9336 38.9204L89.7258 47.9721Z" fill="#2C1711"/>
<path d="M18.9574 80.0495H17.3344C17.2103 80.0495 17.1098 79.949 17.1098 79.8249V78.9252C16.9795 78.8807 16.8519 78.8278 16.7283 78.767L16.0919 79.4033C16.0042 79.491 15.862 79.491 15.7743 79.4033L14.6267 78.2557C14.539 78.168 14.539 78.0258 14.6267 77.9381L15.263 77.3016C15.2022 77.1779 15.1493 77.0505 15.1049 76.9203H14.2051C14.081 76.9203 13.9805 76.8197 13.9805 76.6957V75.0727C13.9805 74.9486 14.081 74.8481 14.2051 74.8481H15.1048C15.1492 74.7176 15.2021 74.5902 15.2629 74.4666L14.6266 73.8302C14.5389 73.7425 14.5389 73.6003 14.6266 73.5126L15.7743 72.3649C15.8164 72.3228 15.8736 72.2991 15.9331 72.2991C15.9927 72.2991 16.0498 72.3228 16.0919 72.3649L16.7283 73.0013C16.8521 72.9404 16.9797 72.8875 17.1098 72.8431V71.9434C17.1098 71.8193 17.2103 71.7188 17.3344 71.7188H18.9572C19.0813 71.7188 19.1818 71.8193 19.1818 71.9434V72.843C19.3122 72.8875 19.4398 72.9404 19.5633 73.0012L20.1998 72.3649C20.2875 72.2772 20.4296 72.2772 20.5174 72.3649L21.6649 73.5126C21.7527 73.6003 21.7527 73.7425 21.6649 73.8302L21.0286 74.4665C21.0895 74.5901 21.1424 74.7176 21.1869 74.8481H22.0866C22.2106 74.8481 22.3112 74.9486 22.3112 75.0727V76.6955C22.3112 76.8196 22.2106 76.9201 22.0866 76.9201H21.1869C21.1425 77.0505 21.0896 77.178 21.0288 77.3016L21.6651 77.9381C21.7528 78.0258 21.7528 78.168 21.6651 78.2557L20.5174 79.4033C20.4296 79.491 20.2875 79.491 20.1998 79.4033L19.5633 78.7669C19.4397 78.8278 19.3121 78.8807 19.1819 78.9251V79.8249C19.182 79.949 19.0814 80.0495 18.9574 80.0495ZM17.559 79.6003H18.7327V78.7598C18.7327 78.6592 18.7996 78.5709 18.8965 78.5437C19.1044 78.4851 19.3058 78.4014 19.4951 78.2951C19.5831 78.246 19.693 78.2613 19.764 78.3322L20.3586 78.9269L21.1887 78.0969L20.5942 77.5022C20.523 77.4311 20.5078 77.3213 20.5571 77.2334C20.6633 77.0445 20.7468 76.843 20.8055 76.6346C20.8327 76.5378 20.9211 76.4709 21.0216 76.4709H21.862V75.2972H21.0216C20.9211 75.2972 20.8328 75.2303 20.8055 75.1336C20.7466 74.925 20.663 74.7234 20.557 74.5347C20.5077 74.447 20.5229 74.3371 20.594 74.2659L21.1886 73.6714L20.3586 72.8413L19.764 73.4358C19.693 73.5072 19.5831 73.5222 19.4951 73.4729C19.3063 73.3668 19.1047 73.2833 18.8963 73.2244C18.7994 73.197 18.7326 73.1088 18.7326 73.0082V72.1679H17.559V73.0083C17.559 73.1089 17.4921 73.1973 17.3952 73.2245C17.1877 73.2829 16.9862 73.3666 16.7963 73.4731C16.7086 73.5222 16.5987 73.507 16.5276 73.4359L15.9331 72.8414L15.103 73.6714L15.6975 74.2659C15.7687 74.3371 15.7839 74.4469 15.7346 74.5347C15.6285 74.7236 15.5449 74.9251 15.4862 75.1335C15.459 75.2303 15.3706 75.2972 15.2701 75.2972H14.4297V76.471H15.2701C15.3706 76.471 15.4589 76.5378 15.4862 76.6346C15.5449 76.8427 15.6286 77.0441 15.7347 77.2335C15.784 77.3213 15.7688 77.4311 15.6977 77.5022L15.1031 78.0969L15.9331 78.9269L16.5276 78.3323C16.5987 78.2615 16.7086 78.246 16.7963 78.2953C16.9855 78.4014 17.187 78.485 17.3953 78.5438C17.4922 78.5711 17.559 78.6594 17.559 78.7599L17.559 79.6003ZM18.1458 77.6886C17.1508 77.6886 16.3413 76.8791 16.3413 75.8841C16.3413 74.889 17.1507 74.0796 18.1458 74.0796C19.1408 74.0796 19.9503 74.889 19.9503 75.8841C19.9503 76.8791 19.1408 77.6886 18.1458 77.6886ZM18.1458 74.5288C17.3985 74.5288 16.7905 75.1368 16.7905 75.8841C16.7905 76.6314 17.3985 77.2394 18.1458 77.2394C18.8931 77.2394 19.5011 76.6314 19.5011 75.8841C19.5011 75.1368 18.8931 74.5288 18.1458 74.5288Z" fill="#D0C0DD"/>
<path d="M108.301 58.176H106.678C106.554 58.176 106.454 58.0754 106.454 57.9514V57.0516C106.323 57.0073 106.196 56.9543 106.072 56.8934L105.436 57.5297C105.348 57.6174 105.206 57.6174 105.118 57.5297L103.97 56.3821C103.883 56.2944 103.883 56.1522 103.97 56.0645L104.607 55.428C104.546 55.3043 104.493 55.1769 104.449 55.0467H103.549C103.425 55.0467 103.324 54.9461 103.324 54.8221V53.1991C103.324 53.075 103.425 52.9745 103.549 52.9745H104.449C104.493 52.8441 104.546 52.7166 104.607 52.5931L103.97 51.9567C103.928 51.9145 103.905 51.8574 103.905 51.7978C103.905 51.7383 103.928 51.6811 103.97 51.6391L105.118 50.4915C105.206 50.4038 105.348 50.4038 105.436 50.4915L106.072 51.1278C106.196 51.0668 106.323 51.0139 106.454 50.9695V50.0698C106.454 49.9458 106.554 49.8452 106.678 49.8452H108.301C108.425 49.8452 108.526 49.9458 108.526 50.0698V50.9694C108.656 51.014 108.784 51.0668 108.907 51.1277L109.544 50.4914C109.586 50.4493 109.643 50.4256 109.702 50.4256C109.762 50.4256 109.819 50.4493 109.861 50.4914L111.009 51.6391C111.096 51.7268 111.096 51.8689 111.009 51.9567L110.372 52.5931C110.433 52.7167 110.486 52.8442 110.531 52.9745H111.43C111.554 52.9745 111.655 53.0751 111.655 53.1991V54.822C111.655 54.946 111.554 55.0466 111.43 55.0466H110.531C110.486 55.177 110.433 55.3044 110.373 55.428L111.009 56.0645C111.097 56.1522 111.097 56.2945 111.009 56.3821L109.861 57.5297C109.819 57.5718 109.762 57.5955 109.702 57.5955C109.643 57.5955 109.586 57.5718 109.544 57.5297L108.907 56.8933C108.783 56.9543 108.656 57.0071 108.526 57.0515V57.9514C108.526 58.0754 108.425 58.176 108.301 58.176ZM106.903 57.7268H108.076V56.8863C108.076 56.7857 108.143 56.6973 108.24 56.6701C108.448 56.6115 108.65 56.5279 108.839 56.4216C108.927 56.3723 109.037 56.3877 109.108 56.4587L109.702 57.0533L110.532 56.2233L109.938 55.6287C109.867 55.5575 109.852 55.4477 109.901 55.3599C110.007 55.1709 110.091 54.9695 110.149 54.7611C110.176 54.6643 110.265 54.5974 110.365 54.5974H111.206V53.4237H110.365C110.265 53.4237 110.177 53.3568 110.149 53.2601C110.09 53.0518 110.007 52.8503 109.901 52.6611C109.851 52.5733 109.867 52.4636 109.938 52.3924L110.532 51.7979L109.702 50.9679L109.108 51.5623C109.037 51.6336 108.927 51.6489 108.839 51.5993C108.65 51.4932 108.448 51.4096 108.24 51.3508C108.143 51.3235 108.076 51.2352 108.076 51.1347V50.2944H106.903V51.1348C106.903 51.2354 106.836 51.3237 106.739 51.351C106.531 51.4094 106.33 51.4931 106.14 51.5995C106.052 51.6489 105.943 51.6337 105.871 51.5624L105.277 50.9679L104.447 51.7978L105.041 52.3924C105.112 52.4635 105.128 52.5733 105.078 52.6612C104.972 52.8501 104.889 53.0516 104.83 53.26C104.803 53.3568 104.714 53.4237 104.614 53.4237H103.773V54.5975H104.614C104.714 54.5975 104.803 54.6643 104.83 54.7611C104.889 54.9691 104.972 55.1706 105.078 55.36C105.128 55.4477 105.113 55.5575 105.041 55.6287L104.447 56.2233L105.277 57.0533L105.871 56.4589C105.943 56.3877 106.052 56.3727 106.14 56.4218C106.33 56.5281 106.531 56.6117 106.739 56.6701C106.836 56.6974 106.903 56.7858 106.903 56.8864L106.903 57.7268ZM107.49 55.815C106.495 55.815 105.685 55.0055 105.685 54.0105C105.685 53.0155 106.495 52.206 107.49 52.206C108.485 52.206 109.294 53.0155 109.294 54.0105C109.294 55.0055 108.485 55.815 107.49 55.815ZM107.49 52.6552C106.742 52.6552 106.134 53.2632 106.134 54.0105C106.134 54.7578 106.742 55.3658 107.49 55.3658C108.237 55.3658 108.845 54.7578 108.845 54.0105C108.845 53.2632 108.237 52.6552 107.49 52.6552Z" fill="#D0C0DD"/>
<path d="M66.7464 48.3951H65.1234C64.9994 48.3951 64.8988 48.2945 64.8988 48.1705V47.2709C64.7685 47.2263 64.641 47.1735 64.5174 47.1126L63.881 47.7489C63.7967 47.8331 63.6476 47.8331 63.5634 47.7489L62.4158 46.6012C62.3281 46.5135 62.3281 46.3713 62.4158 46.2836L63.0521 45.6472C62.9912 45.5235 62.9383 45.3961 62.8939 45.2658H61.9941C61.8701 45.2658 61.7695 45.1652 61.7695 45.0412V43.4183C61.7695 43.2943 61.8701 43.1937 61.9941 43.1937H62.8939C62.9383 43.0633 62.9911 42.9359 63.052 42.8123L62.4157 42.1758C62.328 42.088 62.328 41.9458 62.4157 41.8582L63.5634 40.7106C63.6055 40.6685 63.6626 40.6448 63.7222 40.6448C63.7818 40.6448 63.8389 40.6685 63.881 40.7106L64.5174 41.347C64.6412 41.286 64.7688 41.2332 64.8988 41.1888V40.2891C64.8988 40.165 64.9994 40.0645 65.1234 40.0645H66.7463C66.8704 40.0645 66.9709 40.165 66.9709 40.2891V41.1887C67.1013 41.2332 67.2288 41.2861 67.3523 41.3469L67.9889 40.7106C68.0766 40.6229 68.2187 40.6229 68.3065 40.7106L69.454 41.8582C69.5418 41.9459 69.5418 42.0881 69.454 42.1758L68.8176 42.8122C68.8786 42.9358 68.9314 43.0633 68.976 43.1936H69.8757C69.9997 43.1936 70.1003 43.2942 70.1003 43.4182V45.0412C70.1003 45.1653 69.9997 45.2658 69.8757 45.2658H68.976C68.9316 45.396 68.8787 45.5235 68.8178 45.6472L69.4541 46.2836C69.5419 46.3714 69.5419 46.5135 69.4541 46.6012L68.3064 47.7489C68.2187 47.8367 68.0766 47.8367 67.9888 47.7489L67.3523 47.1125C67.2286 47.1735 67.1011 47.2264 66.971 47.2708V48.1705C66.971 48.2945 66.8704 48.3951 66.7464 48.3951ZM65.348 47.9459H66.5218V47.1055C66.5218 47.0049 66.5887 46.9165 66.6855 46.8893C66.8932 46.8309 67.0946 46.7472 67.2843 46.6408C67.3724 46.5917 67.4821 46.6069 67.553 46.6779L68.1476 47.2725L68.9777 46.4424L68.3832 45.8479C68.312 45.7767 68.2969 45.667 68.3462 45.5792C68.4523 45.3898 68.5359 45.1884 68.5946 44.9803C68.6217 44.8835 68.7102 44.8166 68.8107 44.8166H69.6511V43.6428H68.8107C68.7102 43.6428 68.6219 43.576 68.5946 43.4792C68.5358 43.2708 68.4521 43.0694 68.3459 42.8804C68.2967 42.7926 68.3118 42.6828 68.383 42.6116L68.9776 42.0169L68.1477 41.187L67.553 41.7815C67.4821 41.8529 67.3724 41.8679 67.2842 41.8186C67.0953 41.7124 66.8938 41.6288 66.6853 41.5701C66.5886 41.5428 66.5217 41.4545 66.5217 41.3539V40.5136H65.348V41.354C65.348 41.4546 65.2811 41.543 65.1843 41.5702C64.9768 41.6286 64.7752 41.7123 64.5854 41.8188C64.4977 41.8679 64.388 41.8529 64.3167 41.7816L63.7222 41.187L62.8921 42.017L63.4866 42.6116C63.5578 42.6828 63.5729 42.7926 63.5237 42.8804C63.4175 43.0694 63.334 43.2708 63.2753 43.4792C63.2481 43.576 63.1597 43.6429 63.0591 43.6429H62.2187V44.8166H63.0591C63.1597 44.8166 63.248 44.8835 63.2753 44.9802C63.334 45.1883 63.4177 45.3899 63.5238 45.5793C63.573 45.667 63.5579 45.7768 63.4867 45.8479L62.8922 46.4425L63.7222 47.2724L64.3167 46.678C64.388 46.6071 64.4977 46.5917 64.5854 46.641C64.7746 46.7471 64.976 46.8307 65.1844 46.8895C65.2812 46.9168 65.348 47.0051 65.348 47.1056V47.9459ZM65.9349 46.0342C64.9398 46.0342 64.1304 45.2248 64.1304 44.2297C64.1304 43.2347 64.9398 42.4252 65.9349 42.4252C66.9299 42.4252 67.7394 43.2347 67.7394 44.2297C67.7394 45.2248 66.9299 46.0342 65.9349 46.0342ZM65.9349 42.8744C65.1876 42.8744 64.5796 43.4825 64.5796 44.2297C64.5796 44.977 65.1876 45.585 65.9349 45.585C66.6821 45.585 67.2902 44.977 67.2902 44.2297C67.2902 43.4825 66.6821 42.8744 65.9349 42.8744Z" fill="#D0C0DD"/>
<path d="M103.496 90.656H101.874C101.749 90.656 101.649 90.5554 101.649 90.4314V89.5317C101.519 89.4873 101.391 89.4344 101.268 89.3735L100.631 90.0098C100.543 90.0975 100.401 90.0975 100.313 90.0098L99.1658 88.8621C99.0781 88.7744 99.0781 88.6323 99.1658 88.5445L99.8022 87.908C99.7412 87.7844 99.6884 87.657 99.644 87.5267H98.7441C98.6201 87.5267 98.5195 87.4261 98.5195 87.3021V85.6791C98.5195 85.555 98.6201 85.4545 98.7441 85.4545H99.6439C99.6883 85.3243 99.7411 85.1969 99.8021 85.0731L99.1657 84.4366C99.1236 84.3945 99.0999 84.3374 99.0999 84.2778C99.0999 84.2183 99.1236 84.1612 99.1657 84.119L100.313 82.9715C100.401 82.8837 100.543 82.8837 100.631 82.9715L101.267 83.6078C101.391 83.5468 101.519 83.4939 101.649 83.4495V82.5498C101.649 82.4258 101.749 82.3252 101.873 82.3252H103.496C103.62 82.3252 103.721 82.4258 103.721 82.5498V83.4494C103.851 83.494 103.979 83.5468 104.102 83.6077L104.739 82.9714C104.823 82.8871 104.972 82.8871 105.056 82.9714L106.204 84.1191C106.292 84.2068 106.292 84.3489 106.204 84.4367L105.568 85.073C105.629 85.1967 105.682 85.3241 105.726 85.4545H106.626C106.75 85.4545 106.85 85.5551 106.85 85.6791V87.302C106.85 87.426 106.75 87.5266 106.626 87.5266H105.726C105.682 87.657 105.629 87.7844 105.568 87.908L106.204 88.5445C106.292 88.6323 106.292 88.7745 106.204 88.8621L105.056 90.0097C104.969 90.0974 104.827 90.0974 104.739 90.0097L104.102 89.3733C103.979 89.4343 103.851 89.4871 103.721 89.5315V90.4314C103.721 90.5554 103.62 90.656 103.496 90.656ZM102.098 90.2068H103.272V89.3664C103.272 89.2658 103.339 89.1776 103.435 89.1502C103.643 89.0916 103.845 89.0079 104.034 88.9016C104.123 88.8526 104.232 88.8678 104.303 88.9388L104.898 89.5333L105.728 88.7033L105.133 88.1087C105.062 88.0375 105.047 87.9277 105.096 87.8399C105.202 87.6509 105.286 87.4495 105.345 87.2411C105.372 87.1442 105.46 87.0773 105.561 87.0773H106.401V85.9037H105.561C105.46 85.9037 105.372 85.8368 105.345 85.7399C105.286 85.5317 105.202 85.3302 105.096 85.1411C105.047 85.0534 105.062 84.9435 105.133 84.8723L105.728 84.2778L104.898 83.4478L104.303 84.0422C104.232 84.1133 104.123 84.1288 104.034 84.0793C103.845 83.9731 103.644 83.8896 103.435 83.8308C103.339 83.8035 103.272 83.7152 103.272 83.6147V82.7744H102.098V83.6148C102.098 83.7153 102.031 83.8037 101.934 83.8309C101.727 83.8894 101.525 83.9731 101.336 84.0794C101.248 84.1288 101.138 84.1138 101.067 84.0424L100.472 83.4479L99.6422 84.2778L100.237 84.8723C100.308 84.9434 100.323 85.0532 100.274 85.141C100.167 85.3306 100.084 85.5321 100.025 85.7399C99.9981 85.8368 99.9097 85.9037 99.8091 85.9037H98.9687V87.0775H99.8091C99.9097 87.0775 99.998 87.1443 100.025 87.2411C100.084 87.4492 100.168 87.6507 100.274 87.8399C100.323 87.9277 100.308 88.0375 100.237 88.1087L99.6422 88.7033L100.472 89.5334L101.067 88.9389C101.138 88.8679 101.248 88.8526 101.336 88.9018C101.525 89.008 101.726 89.0915 101.934 89.1502C102.031 89.1774 102.098 89.2658 102.098 89.3664L102.098 90.2068ZM102.685 88.295C101.69 88.295 100.88 87.4856 100.88 86.4905C100.88 85.4955 101.69 84.686 102.685 84.686C103.68 84.686 104.489 85.4955 104.489 86.4905C104.489 87.4856 103.68 88.295 102.685 88.295ZM102.685 85.1353C101.938 85.1353 101.33 85.7433 101.33 86.4906C101.33 87.2378 101.938 87.8459 102.685 87.8459C103.432 87.8459 104.04 87.2378 104.04 86.4906C104.04 85.7433 103.432 85.1353 102.685 85.1353Z" fill="#D0C0DD"/>
<path fill-rule="evenodd" clip-rule="evenodd" d="M80.9336 31.8325L83.958 31.1831L84.1374 35.3125C84.1656 35.8341 82.4534 36.9543 81.9157 36.8941C81.3779 36.8339 80.9897 35.999 80.9616 35.4773L80.9336 31.8325Z" fill="#FB8664"/>
<path fill-rule="evenodd" clip-rule="evenodd" d="M80.9538 34.0254L80.9414 32.4124L82.5154 31.7589L83.613 31.4585C83.613 31.4585 82.9837 33.4649 83.016 33.4362L81.9595 34.3251L80.9538 34.0254Z" fill="#2C1711"/>
<path fill-rule="evenodd" clip-rule="evenodd" d="M78.3461 28.9478C78.7102 33.8046 80.0935 33.7198 81.0693 33.6551C82.0451 33.5902 85.1251 30.7805 85.0316 28.6491C84.8283 24.0211 77.982 24.0908 78.3461 28.9478Z" fill="#FB8664"/>
<path fill-rule="evenodd" clip-rule="evenodd" d="M78.4805 30.2183C78.5067 30.4082 78.5351 30.5877 78.5654 30.7575C78.8785 30.7298 79.1122 30.6208 79.1122 30.4906C79.1122 30.3489 78.8354 30.2322 78.4805 30.2183Z" fill="#EB6955"/>
<path fill-rule="evenodd" clip-rule="evenodd" d="M84.1805 29.825C82.9324 29.8902 82.6569 27.773 83.1195 27.438L83.4055 27.2308L82.5043 27.1887C82.5043 27.1887 81.2073 27.7109 80.2386 27.7446C79.27 27.7783 77.7119 28.0226 77.1307 28.4943C76.5496 28.9659 76.6253 27.3909 77.7456 26.8519C77.7456 26.8519 77.6108 26.6665 77.2486 26.7255C76.8865 26.7844 77.1307 26.1191 78.4615 25.8579C78.4615 25.8579 79.1606 24.8473 81.3168 24.6283C83.473 24.4093 85.0396 25.7569 85.3428 26.397C85.6461 27.0372 85.9998 30.1367 84.1805 29.825Z" fill="#2C1711"/>
<path fill-rule="evenodd" clip-rule="evenodd" d="M84.2627 29.1349C84.8809 29.1078 85.404 29.5869 85.4312 30.2051C85.4583 30.8233 84.9791 31.3464 84.361 31.3735C83.7428 31.4007 83.2196 30.9216 83.1925 30.3034C83.1654 29.6852 83.6445 29.162 84.2627 29.1349Z" fill="#FB8664"/>
<path fill-rule="evenodd" clip-rule="evenodd" d="M79.2387 28.8226C79.7139 28.8018 80.1168 29.1866 80.1168 29.1866C80.1168 29.1866 79.7492 29.6054 79.274 29.6262C78.7988 29.6471 78.5391 29.2538 78.5391 29.2538C78.5391 29.2538 78.7635 28.8434 79.2387 28.8226Z" fill="white"/>
<path fill-rule="evenodd" clip-rule="evenodd" d="M79.1475 29.5803C79.3019 29.5735 79.4215 29.4429 79.4147 29.2885C79.408 29.1342 79.2773 29.0145 79.123 29.0213C78.9686 29.028 78.8489 29.1587 78.8557 29.3131C78.8625 29.4675 78.9931 29.5871 79.1475 29.5803Z" fill="#2C1711"/>
<path d="M80.7743 31.4483L80.4049 31.3332L79.8468 31.4444C79.8192 31.45 79.7901 31.441 79.7701 31.4207C79.7503 31.4004 79.7419 31.3714 79.7481 31.3437L80.1509 29.5176L80.3154 29.5538L79.9403 31.254L80.3931 31.1638C80.4069 31.1611 80.4211 31.1619 80.4345 31.166L80.8244 31.2874L80.7743 31.4483Z" fill="#2C1711"/>
<path d="M84.2162 31.0435L84.0978 30.9242L84.1573 30.8647C84.16 30.8621 84.4272 30.5921 84.357 30.3625C84.3386 30.3024 84.3025 30.2611 84.2465 30.2362C84.113 30.1769 83.8999 30.2221 83.7478 30.2931C83.6837 30.3232 83.6174 30.312 83.5752 30.2631C83.4935 30.1684 83.5288 29.9438 83.6557 29.7517C83.7646 29.5869 84.0915 29.2268 84.772 29.4434L84.8523 29.469L84.8012 29.6295L84.7209 29.604C84.2171 29.4433 83.9522 29.6494 83.8393 29.7864C83.7275 29.9219 83.6942 30.0677 83.6987 30.1304C83.8811 30.0507 84.1293 29.9997 84.3149 30.0824C84.4152 30.1269 84.4855 30.2067 84.518 30.3131C84.6181 30.6404 84.2899 30.9705 84.2759 30.9843L84.2162 31.0435Z" fill="#2C1711"/>
<path d="M79.8177 28.6996L79.7367 28.6224C79.7327 28.6187 79.3383 28.2502 78.8281 28.3581L78.7182 28.3812L78.6719 28.1614L78.7818 28.1383C79.4117 28.0058 79.8729 28.4417 79.8922 28.4603L79.9729 28.5381L79.8177 28.6996Z" fill="#2C1711"/>
<path fill-rule="evenodd" clip-rule="evenodd" d="M25.4883 62.7729H49.9962L52.2124 95.8196L27.9 95.7545L25.4883 62.7729Z" fill="#2C1711"/>
<path fill-rule="evenodd" clip-rule="evenodd" d="M29.0312 62.7729H53.5392L55.7554 95.8196L31.4429 95.7545L29.0312 62.7729Z" fill="#F0A4B8"/>
<path d="M57.5158 95.7656H31.8672V97.2542H57.5158V95.7656Z" fill="#FBB4C2"/>
<path d="M33.1675 95.7656H25.8398V97.2542H33.1675V95.7656Z" fill="#2C1711"/>
<path fill-rule="evenodd" clip-rule="evenodd" d="M14.0754 44.979L13.4102 47.8613L33.0948 78.1704H67.771L68.4361 75.2881L47.5783 44.979H14.0754Z" fill="#2C1711"/>
<path fill-rule="evenodd" clip-rule="evenodd" d="M68.435 75.2881H33.7589L14.0742 44.979H47.5771L68.435 75.2881Z" fill="#FBB4C2"/>
<path fill-rule="evenodd" clip-rule="evenodd" d="M60.891 71.0812H35.8411L21.6211 49.186H45.8235L60.891 71.0812Z" fill="#FAF5F0"/>
<path fill-rule="evenodd" clip-rule="evenodd" d="M42.9543 52.6445H43.1788V53.0938H29.8711V52.6445H42.9543Z" fill="#2C1711"/>
<path fill-rule="evenodd" clip-rule="evenodd" d="M29.9931 53.2818L29.8711 53.0941L30.2466 52.8501C32.069 55.655 33.8902 58.4607 35.7122 61.2659H35.1785L29.9931 53.2818Z" fill="#2C1711"/>
<path fill-rule="evenodd" clip-rule="evenodd" d="M34.8603 53.2818L34.7383 53.0941L35.1138 52.8501C37.2971 56.2106 39.4787 59.5721 41.662 62.9326L41.2865 63.1765L34.8603 53.2818Z" fill="#2C1711"/>
<path fill-rule="evenodd" clip-rule="evenodd" d="M52.1925 62.7271H52.4171V63.1763H39.1094V62.7271H52.1925Z" fill="#2C1711"/>
<path fill-rule="evenodd" clip-rule="evenodd" d="M38.7392 53.0763L38.6172 52.8885L38.9927 52.6445C40.1483 54.4233 41.3035 56.2022 42.4587 57.9813H41.9248L38.7392 53.0763Z" fill="#2C1711"/>
<path fill-rule="evenodd" clip-rule="evenodd" d="M42.9228 53.0763L42.8008 52.8885L43.1763 52.6445C45.3596 56.005 47.5412 59.3665 49.7245 62.727L49.349 62.971L42.9228 53.0763Z" fill="#2C1711"/>
<path d="M46.2262 57.5327H41.9297V57.9819H46.2262V57.5327Z" fill="#2C1711"/>
<path fill-rule="evenodd" clip-rule="evenodd" d="M39.2314 63.3643L39.1094 63.1766L39.4849 62.9326C40.6405 64.7113 41.7957 66.4903 42.9509 68.2694H42.417L39.2314 63.3643Z" fill="#2C1711"/>
<path d="M46.7184 67.8203H42.4219V68.2696H46.7184V67.8203Z" fill="#2C1711"/>
<path d="M45.4416 66.7182C44.8255 66.7182 44.3242 66.2169 44.3242 65.6008C44.3242 64.9847 44.8255 64.4834 45.4416 64.4834C46.0578 64.4834 46.5591 64.9847 46.5591 65.6008C46.5591 66.2169 46.0578 66.7182 45.4416 66.7182ZM45.4416 64.9326C45.0731 64.9326 44.7734 65.2323 44.7734 65.6008C44.7734 65.9693 45.0731 66.269 45.4416 66.269C45.8101 66.269 46.1098 65.9693 46.1098 65.6008C46.1098 65.2323 45.8101 64.9326 45.4416 64.9326Z" fill="#2C1711"/>
<path d="M49.4494 66.7182C48.8333 66.7182 48.332 66.2169 48.332 65.6008C48.332 64.9847 48.8333 64.4834 49.4494 64.4834C50.0656 64.4834 50.5669 64.9847 50.5669 65.6008C50.5669 66.2169 50.0656 66.7182 49.4494 66.7182ZM49.4494 64.9326C49.081 64.9326 48.7812 65.2323 48.7812 65.6008C48.7812 65.9693 49.081 66.269 49.4494 66.269C49.8179 66.269 50.1176 65.9693 50.1176 65.6008C50.1176 65.2323 49.8179 64.9326 49.4494 64.9326Z" fill="#2C1711"/>
<path d="M33.6173 56.0385C33.0012 56.0385 32.5 55.5371 32.5 54.921C32.5 54.3049 33.0012 53.8037 33.6173 53.8037C34.2334 53.8037 34.7347 54.3049 34.7347 54.921C34.7347 55.5371 34.2334 56.0385 33.6173 56.0385ZM33.6173 54.2529C33.2489 54.2529 32.9492 54.5527 32.9492 54.921C32.9492 55.2895 33.2489 55.5892 33.6173 55.5892C33.9858 55.5892 34.2855 55.2895 34.2855 54.921C34.2855 54.5527 33.9858 54.2529 33.6173 54.2529Z" fill="#2C1711"/>
<path fill-rule="evenodd" clip-rule="evenodd" d="M81.8069 97.2541H71.3438L72.7209 95.5037L76.2455 93.3511H81.3301L81.8069 97.2541Z" fill="#A278C4"/>
<path fill-rule="evenodd" clip-rule="evenodd" d="M95.1467 97.2541H84.6836L86.0607 95.5037L89.5853 93.3511H94.6699L95.1467 97.2541Z" fill="#A278C4"/>
<path fill-rule="evenodd" clip-rule="evenodd" d="M89.6063 55.2891L89.1191 56.4078L87.238 57.5107L86.1719 59.7897L86.6 60.0669L87.8896 59.0171L88.6749 60.7998L89.297 64.0274L91.2222 63.2306L91.5762 60.9406L91.8278 57.6625L92.7879 56.178L89.6063 55.2891Z" fill="#FB8664"/>
<path fill-rule="evenodd" clip-rule="evenodd" d="M92.6414 57.2667L96.109 47.3235L90.4155 36.3336L88.8455 35.8491L86.7685 36.6696L86.3242 38.5698L91.5691 47.8647L88.709 55.8628L92.6414 57.2667Z" fill="#F0A4B8"/>
<path fill-rule="evenodd" clip-rule="evenodd" d="M91.6875 47.9103C91.8252 47.9103 93.2562 48.4378 93.374 48.4378C93.4919 48.4378 95.2335 47.7671 95.2335 47.7671L93.0932 47.9482L91.6875 47.9103Z" fill="#2C1711"/>
<path d="M58.4521 37.9521H37.8984V41.1561H58.4521V37.9521Z" fill="#F8D3A8"/>
<path d="M44.7875 27.312H42.5508V37.9516H44.7875V27.312Z" fill="#C797E3"/>
<path d="M50.2902 27.312H44.7891V37.9516H50.2902V27.312Z" fill="#9760C6"/>
<path fill-rule="evenodd" clip-rule="evenodd" d="M43.6653 31.2838C44.0641 31.2838 44.3892 30.9586 44.3892 30.5599C44.3892 30.1612 44.0641 29.8359 43.6653 29.8359C43.2666 29.8359 42.9414 30.1612 42.9414 30.5599C42.9414 30.9586 43.2666 31.2838 43.6653 31.2838Z" fill="#F8D3A8"/>
<path d="M49.2914 27.312H47.0547V37.9516H49.2914V27.312Z" fill="#C797E3"/>
<path d="M54.7901 27.312H49.2891V37.9516H54.7901V27.312Z" fill="#9760C6"/>
<path fill-rule="evenodd" clip-rule="evenodd" d="M48.1731 31.2838C48.5718 31.2838 48.897 30.9586 48.897 30.5599C48.897 30.1612 48.5718 29.8359 48.1731 29.8359C47.7743 29.8359 47.4492 30.1612 47.4492 30.5599C47.4492 30.9586 47.7743 31.2838 48.1731 31.2838Z" fill="#F8D3A8"/>
<path d="M82.2981 28.6998L82.217 28.6225C82.2131 28.6188 81.8185 28.2505 81.3085 28.3582L81.1986 28.3814L81.1523 28.1616L81.2622 28.1385C81.8917 28.0054 82.3532 28.4418 82.3725 28.4605L82.4532 28.5382L82.2981 28.6998Z" fill="#2C1711"/>
<path fill-rule="evenodd" clip-rule="evenodd" d="M81.7231 28.8226C82.1983 28.8018 82.6012 29.1866 82.6012 29.1866C82.6012 29.1866 82.2335 29.6054 81.7583 29.6262C81.2831 29.6471 81.0234 29.2538 81.0234 29.2538C81.0234 29.2538 81.2479 28.8434 81.7231 28.8226Z" fill="white"/>
<path fill-rule="evenodd" clip-rule="evenodd" d="M81.6241 29.5803C81.7785 29.5735 81.8981 29.4429 81.8913 29.2885C81.8845 29.1342 81.7539 29.0145 81.5995 29.0213C81.4452 29.028 81.3255 29.1587 81.3323 29.3131C81.339 29.4675 81.4697 29.5871 81.6241 29.5803Z" fill="#2C1711"/>
<path fill-rule="evenodd" clip-rule="evenodd" d="M81.4369 32.1323C81.4369 32.4981 80.9911 32.7946 80.4411 32.7946C79.8911 32.7946 79.4453 32.4981 79.4453 32.1323H81.4369Z" fill="white"/>
<path fill-rule="evenodd" clip-rule="evenodd" d="M82.0353 30.7643C82.4227 30.7643 82.7386 30.6413 82.7386 30.4906C82.7386 30.3398 82.4227 30.2168 82.0353 30.2168C81.648 30.2168 81.332 30.3398 81.332 30.4906C81.332 30.6413 81.648 30.7643 82.0353 30.7643Z" fill="#EB6955"/>
<path fill-rule="evenodd" clip-rule="evenodd" d="M36.3232 73.8331H33.7257L16.5 47.3101H19.0975L36.3232 73.8331Z" fill="#A278C4"/>
<path fill-rule="evenodd" clip-rule="evenodd" d="M32.7313 72.3086L32.3594 71.7358H33.5873L33.9593 72.3086H32.7313Z" fill="#9760C6"/>
<path fill-rule="evenodd" clip-rule="evenodd" d="M29.5048 67.3403L29.1328 66.7676H30.3607L30.7327 67.3403H29.5048Z" fill="#9760C6"/>
<path fill-rule="evenodd" clip-rule="evenodd" d="M26.7626 63.1152L26.3906 62.5425H27.6185L27.9905 63.1152H26.7626Z" fill="#9760C6"/>
<path fill-rule="evenodd" clip-rule="evenodd" d="M24.6922 59.9263L24.3203 59.3535H25.5482L25.9202 59.9263H24.6922Z" fill="#9760C6"/>
<path fill-rule="evenodd" clip-rule="evenodd" d="M21.7704 55.4277L21.3984 54.855H22.6263L22.9983 55.4277H21.7704Z" fill="#9760C6"/>
<path fill-rule="evenodd" clip-rule="evenodd" d="M18.7704 50.812L18.3984 50.2393H19.6263L19.9983 50.812H18.7704Z" fill="#9760C6"/>
</g>
<defs>
<clipPath id="clip0_21_391">
<rect width="124" height="124" rx="62" fill="white"/>
</clipPath>
</defs>
</svg>
