<svg width="64" height="64" viewBox="0 0 64 64" fill="none" xmlns="http://www.w3.org/2000/svg">
<g clip-path="url(#clip0_121_5)">
<path d="M32 38.5625C35.6244 38.5625 38.5625 35.6244 38.5625 32C38.5625 28.3756 35.6244 25.4375 32 25.4375C28.3756 25.4375 25.4375 28.3756 25.4375 32C25.4375 35.6244 28.3756 38.5625 32 38.5625Z" fill="white"/>
<path d="M32 0.75C14.7411 0.75 0.75 14.7411 0.75 32C0.75 49.2589 14.7411 63.25 32 63.25C49.2589 63.25 63.25 49.2589 63.25 32C63.25 14.7411 49.2589 0.75 32 0.75ZM51.3073 39.9425C51.1573 42.9135 50.3224 45.8432 48.1572 47.9854C45.9711 50.1479 43.0275 50.9536 40.0279 51.1021H23.9722C20.9722 50.9536 18.029 50.1484 15.8429 47.9854C13.6776 45.8432 12.8429 42.9135 12.6929 39.9425V24.0575C12.8429 21.0865 13.6777 18.1567 15.8429 16.0145C18.029 13.852 20.9726 13.0462 23.9722 12.8979H40.0277C43.0277 13.0462 45.971 13.8516 48.1571 16.0145C50.3224 18.1567 51.1571 21.0865 51.3071 24.0575L51.3073 39.9425Z" fill="white"/>
<path d="M39.8234 16.5172C35.9126 16.41 28.0851 16.41 24.1744 16.5172C22.1392 16.5731 19.8321 17.0797 18.3821 18.6285C16.8754 20.2383 16.306 22.1833 16.2482 24.3592C16.1467 28.1782 16.2482 39.6407 16.2482 39.6407C16.3144 41.8163 16.8754 43.7616 18.3821 45.3715C19.8321 46.9207 22.1392 47.4268 24.1744 47.4827C28.0851 47.59 35.9126 47.59 39.8234 47.4827C41.8585 47.4268 44.1656 46.9202 45.6156 45.3715C47.1224 43.7616 47.6917 41.8166 47.7495 39.6407V24.3592C47.6917 22.1833 47.1224 20.2383 45.6156 18.6285C44.1651 17.0792 41.858 16.5731 39.8234 16.5172ZM31.9984 42.1718C29.9866 42.1718 28.0199 41.5753 26.3472 40.4576C24.6744 39.3399 23.3707 37.7512 22.6008 35.8926C21.8309 34.0339 21.6295 31.9887 22.0219 30.0155C22.4144 28.0424 23.3832 26.2299 24.8058 24.8074C26.2283 23.3848 28.0408 22.416 30.0139 22.0235C31.9871 21.631 34.0323 21.8325 35.891 22.6024C37.7496 23.3723 39.3383 24.676 40.456 26.3488C41.5737 28.0215 42.1702 29.9881 42.1702 32C42.1702 34.6977 41.0986 37.285 39.191 39.1926C37.2834 41.1002 34.6961 42.1718 31.9984 42.1718ZM42.2135 23.9277C41.8111 23.9276 41.4179 23.8082 41.0834 23.5846C40.7489 23.361 40.4882 23.0432 40.3343 22.6715C40.1804 22.2998 40.1402 21.8907 40.2188 21.4961C40.2973 21.1015 40.4911 20.7391 40.7756 20.4546C41.0602 20.1702 41.4227 19.9765 41.8173 19.898C42.2119 19.8196 42.6209 19.8599 42.9926 20.0139C43.3643 20.1679 43.682 20.4286 43.9055 20.7631C44.1291 21.0977 44.2484 21.491 44.2484 21.8933C44.2484 22.1605 44.1957 22.4251 44.0935 22.672C43.9912 22.9188 43.8413 23.1431 43.6523 23.332C43.4634 23.5209 43.239 23.6708 42.9922 23.773C42.7453 23.8752 42.4807 23.9278 42.2135 23.9277Z" fill="white"/>
</g>
<defs>
<clipPath id="clip0_121_5">
<rect width="64" height="64" fill="white"/>
</clipPath>
</defs>
</svg>
