<svg width="64" height="64" viewBox="0 0 64 64" fill="none" xmlns="http://www.w3.org/2000/svg">
<g clip-path="url(#clip0_121_13)">
<path d="M27.5625 37.1621L36.4383 32.0126L27.5625 26.8379V37.1621Z" fill="white"/>
<path d="M32 0C25.671 0 19.4841 1.87677 14.2218 5.39297C8.95939 8.90918 4.85787 13.9069 2.43587 19.7541C0.013865 25.6014 -0.619842 32.0355 0.614885 38.2429C1.84961 44.4503 4.89732 50.1521 9.3726 54.6274C13.8479 59.1027 19.5497 62.1504 25.7571 63.3851C31.9645 64.6199 38.3986 63.9862 44.2459 61.5641C50.0931 59.1421 55.0908 55.0406 58.607 49.7783C62.1232 44.5159 64 38.329 64 32C64 23.5131 60.6286 15.3737 54.6274 9.37258C48.6263 3.37142 40.4869 0 32 0ZM48.8421 37.6632C48.8427 38.5001 48.6783 39.329 48.3584 40.1023C48.0385 40.8757 47.5693 41.5785 46.9777 42.1705C46.3861 42.7625 45.6836 43.2322 44.9105 43.5526C44.1373 43.873 43.3085 44.0379 42.4716 44.0379H21.5284C20.6915 44.0379 19.8628 43.873 19.0896 43.5526C18.3164 43.2322 17.6139 42.7625 17.0223 42.1705C16.4307 41.5785 15.9615 40.8757 15.6416 40.1023C15.3217 39.329 15.1574 38.5001 15.1579 37.6632V26.3368C15.1574 25.4999 15.3217 24.671 15.6416 23.8977C15.9615 23.1243 16.4307 22.4215 17.0223 21.8295C17.6139 21.2375 18.3164 20.7678 19.0896 20.4474C19.8628 20.127 20.6915 19.9621 21.5284 19.9621H42.4716C43.3085 19.9621 44.1373 20.127 44.9105 20.4474C45.6836 20.7678 46.3861 21.2375 46.9777 21.8295C47.5693 22.4215 48.0385 23.1243 48.3584 23.8977C48.6783 24.671 48.8427 25.4999 48.8421 26.3368V37.6632Z" fill="white"/>
</g>
<defs>
<clipPath id="clip0_121_13">
<rect width="64" height="64" fill="white"/>
</clipPath>
</defs>
</svg>
